<?xml version="1.0" encoding="UTF-8"?>
<svg version="1.1" xmlns="http://www.w3.org/2000/svg" width="512" height="512">
<path d="M0 0 C9.5263819 6.76065812 11.36495801 17.82688741 14.00390625 28.5390625 C14.41286133 30.15167969 14.41286133 30.15167969 14.83007812 31.796875 C15.08724609 32.83070312 15.34441406 33.86453125 15.609375 34.9296875 C15.84164795 35.86329102 16.0739209 36.79689453 16.31323242 37.75878906 C16.81640625 40.2890625 16.81640625 40.2890625 16.81640625 44.2890625 C18.36328125 44.0415625 18.36328125 44.0415625 19.94140625 43.7890625 C38.082557 41.62632745 38.082557 41.62632745 45.07421875 45.90234375 C53.67232728 52.74612969 56.58526514 60.72536093 57.91862488 71.40736389 C58.01250992 72.23586349 58.10639496 73.0643631 58.203125 73.91796875 C58.30986038 74.79307602 58.41659576 75.66818329 58.52656555 76.56980896 C58.86113102 79.32942248 59.18273535 82.09036147 59.50390625 84.8515625 C59.73025975 86.73773362 59.95746553 88.62380266 60.18554688 90.50976562 C60.73901617 95.10174467 61.28087764 99.69495805 61.81640625 104.2890625 C62.62392334 104.46211914 63.43144043 104.63517578 64.26342773 104.81347656 C74.95930182 107.26295033 74.95930182 107.26295033 78.87890625 111.0390625 C79.57113281 111.67328125 80.26335937 112.3075 80.9765625 112.9609375 C85.77366166 119.03115214 86.25393887 124.64537615 86.2040863 132.1124115 C86.21216461 133.57074436 86.21216461 133.57074436 86.22040612 135.0585385 C86.23468204 138.30730324 86.22758274 141.55566033 86.22045898 144.80444336 C86.22616271 147.13729683 86.23312698 149.4701475 86.24125671 151.80299377 C86.25920246 158.13353326 86.25801706 164.46393424 86.25231433 170.79449153 C86.24883366 176.74931351 86.25678504 182.70411429 86.26367498 188.65893168 C86.27739281 201.17289877 86.27196734 213.6868033 86.26048977 226.20076896 C86.25055753 237.64073346 86.26349909 249.08053623 86.28742396 260.5204758 C86.31182584 272.27740188 86.3214202 284.03425266 86.31477123 295.79120356 C86.31139962 302.38770289 86.31383058 308.98406859 86.33102226 315.58054924 C86.34648245 321.78337696 86.34254573 327.98589569 86.32371712 334.18871117 C86.32002878 336.46389964 86.32314678 338.73911097 86.33360291 341.01427841 C86.34679714 344.12278529 86.33527835 347.23026692 86.31761169 350.33872986 C86.3272167 351.23669798 86.33682171 352.13466611 86.34671777 353.05984539 C86.26148507 360.36059655 84.1964429 365.45874865 79.50390625 371.0390625 C72.35543725 377.02382725 66.08106782 378.44252655 56.88614273 378.42049026 C56.08953425 378.4225429 55.29292576 378.42459553 54.47217762 378.42671037 C51.79232902 378.43238254 49.11253178 378.43092285 46.43267822 378.42950439 C44.49612041 378.4320879 42.55956312 378.43510102 40.62300658 378.4385078 C35.2929365 378.44658266 29.96287987 378.44836764 24.63280439 378.44910526 C18.88760485 378.45095495 13.1424123 378.45850182 7.3972168 378.46524048 C-5.16880542 378.47882741 -17.73482444 378.48484898 -30.30085278 378.48925114 C-38.14492803 378.49201274 -45.98900205 378.49624992 -53.83307648 378.50075531 C-75.54508779 378.51294805 -97.25709778 378.523283 -118.9691124 378.5266304 C-120.37298879 378.52685203 -121.77686517 378.52707382 -123.18074156 378.52729575 C-124.58800007 378.52751639 -125.99525857 378.52773688 -127.40251708 378.5279572 C-130.22570149 378.52839975 -133.0488859 378.52884687 -135.87207031 378.52929688 C-136.57205512 378.52940627 -137.27203992 378.52951566 -137.99323638 378.52962836 C-160.69277827 378.53325939 -183.39228823 378.54918165 -206.0918179 378.57248724 C-230.09276727 378.59708393 -254.09369761 378.61079643 -278.09466004 378.61199832 C-291.17737974 378.61291563 -304.26005762 378.61868218 -317.34276581 378.63681793 C-328.48167565 378.65220459 -339.62053076 378.65734782 -350.75944921 378.64907983 C-356.44353811 378.64516837 -362.12751672 378.64612725 -367.8115921 378.66013718 C-373.01531738 378.67284599 -378.21884918 378.67170508 -383.42257407 378.65954646 C-385.30480832 378.65758425 -387.18705613 378.66069205 -389.0692713 378.66939083 C-411.29258519 378.76559243 -411.29258519 378.76559243 -420.18359375 371.2890625 C-423.7023968 366.578253 -426.30287125 362.22016999 -426.31781483 356.22533131 C-426.32227267 355.3952436 -426.32673051 354.5651559 -426.33132344 353.70991403 C-426.33113908 352.79806382 -426.33095472 351.8862136 -426.33076477 350.94673157 C-426.33444146 349.97792736 -426.33811815 349.00912315 -426.34190625 348.01096123 C-426.35295925 344.74989659 -426.35678968 341.48886379 -426.3605957 338.2277832 C-426.36685913 335.89552204 -426.37350582 333.56326187 -426.38050842 331.23100281 C-426.39792924 324.88374176 -426.40847313 318.53648826 -426.41671395 312.18920922 C-426.4218618 308.22501192 -426.42793762 304.26081697 -426.43422508 300.29662132 C-426.45109596 289.31879245 -426.46573075 278.34096565 -426.47297382 267.3631258 C-426.47488368 264.51462617 -426.47680402 261.66612655 -426.47875977 258.81762695 C-426.47924351 258.10965563 -426.47972725 257.4016843 -426.48022565 256.67225929 C-426.48852415 245.20618662 -426.51385812 233.74021834 -426.54634044 222.27419124 C-426.5794254 210.49932632 -426.5974239 198.72451442 -426.60061806 186.94960278 C-426.60297044 180.33961113 -426.61195559 173.72978446 -426.63707924 167.11983681 C-426.6603353 160.90067309 -426.66460291 154.68178326 -426.65431786 148.46258736 C-426.65382179 146.18094218 -426.66016292 143.89928363 -426.6738739 141.6176796 C-426.69155834 138.50022831 -426.68450296 135.38376359 -426.67134094 132.26631165 C-426.68231019 131.36561504 -426.69327943 130.46491844 -426.70458108 129.536928 C-426.6336758 122.57003989 -424.84219664 117.32293538 -420.21875 112.046875 C-419.56777344 111.50804687 -418.91679687 110.96921875 -418.24609375 110.4140625 C-417.59769531 109.85976562 -416.94929688 109.30546875 -416.28125 108.734375 C-411.77624993 105.63037122 -406.66777191 104.61713538 -401.40039062 103.44799805 C-392.76027996 101.47004052 -384.2413961 99.16113691 -375.71484375 96.74609375 C-374.14707763 96.30500938 -372.57921876 95.86425455 -371.01127625 95.42379761 C-367.658401 94.48119527 -364.30616726 93.53635762 -360.95443726 92.58969116 C-355.54918456 91.06305295 -350.14248078 89.54159699 -344.7355957 88.02075195 C-337.07791153 85.86633079 -329.4208331 83.70976991 -321.76416016 81.55175781 C-305.13507753 76.86523991 -288.50198071 72.19300949 -271.86883545 67.52093506 C-268.18863672 66.48718517 -264.50850387 65.45320126 -260.82843018 64.41900635 C-230.7640199 55.97016092 -200.69022213 47.55520197 -170.61256409 39.15365219 C-144.18943653 31.77287706 -117.77282682 24.3697282 -91.36825562 16.92282867 C-52.03429292 5.82948669 -52.03429292 5.82948669 -37.35061646 1.73999023 C-35.85686045 1.3239144 -34.36326116 0.9072754 -32.86984253 0.48999023 C-30.93068585 -0.05154487 -28.99076038 -0.5903249 -27.05078125 -1.12890625 C-26.02065918 -1.41531982 -24.99053711 -1.7017334 -23.92919922 -1.99682617 C-15.54471963 -4.17756624 -7.75754578 -4.35676308 0 0 Z M-22.61987305 15.10546875 C-23.72825326 15.41636476 -23.72825326 15.41636476 -24.859025 15.73354149 C-27.32839581 16.42903972 -29.79293378 17.14032252 -32.2578125 17.8515625 C-34.01963518 18.35106508 -35.78174783 18.84954587 -37.54412842 19.34707642 C-41.33229517 20.41874512 -45.11839759 21.49733082 -48.90304565 22.58135986 C-54.93560816 24.30917305 -60.97241548 26.02179906 -67.01000977 27.73193359 C-74.29884124 29.79745188 -81.58669984 31.86633364 -88.87328243 33.93977165 C-101.05830969 37.40666433 -113.2503647 40.84771637 -125.44921875 44.265625 C-126.29271818 44.50196341 -127.13621761 44.73830181 -128.00527763 44.98180199 C-132.21348334 46.16067088 -136.42186394 47.33891388 -140.63034058 48.51681519 C-148.12131245 50.61364928 -155.6110119 52.71502079 -163.10084343 54.81592369 C-167.29584869 55.99256322 -171.49094879 57.16886453 -175.68603516 58.34521484 C-186.97051106 61.50961534 -198.25479693 64.67469331 -209.5390625 67.83984375 C-210.50101217 68.10966316 -211.46296185 68.37948257 -212.45406151 68.65747833 C-217.21474773 69.99281653 -221.97543171 71.32816274 -226.7361145 72.66351318 C-234.73718409 74.90777437 -242.73827173 77.15197119 -250.7393589 79.39616966 C-254.47874652 80.44501868 -258.218133 81.49387171 -261.95751953 82.54272461 C-264.0328776 83.12483724 -266.10823568 83.70694987 -268.18359375 84.2890625 C-268.18359375 84.6190625 -268.18359375 84.9490625 -268.18359375 85.2890625 C-255.56505178 84.65735452 -243.1150633 82.6836363 -230.62255859 80.88671875 C-228.14283172 80.53316658 -225.66305327 80.17997599 -223.18322754 79.82711792 C-217.17502436 78.97120246 -211.16738821 78.11140848 -205.16001038 77.24972606 C-198.15998028 76.24581258 -191.1593369 75.24620786 -184.15867431 74.24671614 C-171.67249951 72.4638859 -159.1869211 70.67691301 -146.70166016 68.88769531 C-134.58886571 67.1518559 -122.4755963 65.41937874 -110.36181641 63.69042969 C-97.15204466 61.80504919 -83.94252392 59.91792805 -70.73344958 58.02766705 C-69.32626324 57.82629549 -67.91907685 57.6249243 -66.51189041 57.42355347 C-65.8195916 57.3244812 -65.12729279 57.22540893 -64.41401523 57.12333447 C-59.53374666 56.42504453 -54.65330792 55.72795194 -49.77280807 55.03128052 C-43.21423752 54.09501044 -36.6561074 53.15569887 -30.0982666 52.21432877 C-27.68726966 51.86868493 -25.27613505 51.52399988 -22.86485672 51.18032455 C-19.58411866 50.71256328 -16.30389006 50.24138174 -13.02377319 49.76928711 C-12.0608603 49.63280793 -11.09794741 49.49632875 -10.10585535 49.35571384 C-9.2300836 49.22893725 -8.35431185 49.10216066 -7.45200157 48.97154236 C-6.69467149 48.8631047 -5.93734141 48.75466703 -5.15706193 48.64294338 C-2.98183193 48.30170668 -2.98183193 48.30170668 -0.18359375 47.2890625 C-0.83893533 41.08852293 -2.01109553 35.15439718 -3.49609375 29.1015625 C-3.69654297 28.22564453 -3.89699219 27.34972656 -4.10351562 26.44726562 C-5.29336349 21.58841321 -6.35917997 17.76516902 -10.18359375 14.2890625 C-14.64504881 12.77668996 -18.25359359 13.82359556 -22.61987305 15.10546875 Z M16.8334198 61.42315674 C15.97436533 61.54536362 15.11531086 61.66757051 14.23022443 61.79348063 C11.37158067 62.20170025 8.51432488 62.61890976 5.65698242 63.03613281 C3.59500826 63.33247447 1.53295354 63.62825607 -0.5291748 63.92352295 C-6.14030082 64.72856601 -11.75027032 65.54142389 -17.36007524 66.35561466 C-23.32187726 67.21947332 -29.28473597 68.0759768 -35.2474823 68.93328857 C-46.63324135 70.57142133 -58.01806951 72.21593228 -69.40256757 73.86280322 C-83.25786878 75.86682565 -97.11426383 77.8632395 -110.97070312 79.859375 C-115.91568901 80.57183644 -120.86066453 81.28436976 -125.80563354 81.99694824 C-127.02293148 82.17236003 -128.24022941 82.34777183 -129.49441516 82.52849913 C-138.03607647 83.75948716 -146.57754445 84.99181085 -155.118927 86.22473145 C-185.55778801 90.61810885 -215.99951131 94.99090939 -246.4453125 99.3359375 C-247.8134992 99.53119695 -247.8134992 99.53119695 -249.20932603 99.73040104 C-259.86722232 101.25130921 -270.52529588 102.77097102 -281.18359375 104.2890625 C-281.18359375 104.6190625 -281.18359375 104.9490625 -281.18359375 105.2890625 C-173.93359375 105.2890625 -66.68359375 105.2890625 43.81640625 105.2890625 C43.19841407 96.01917979 42.56077868 86.86911449 41.44140625 77.6640625 C41.32796875 76.62894531 41.21453125 75.59382813 41.09765625 74.52734375 C40.30566944 67.41967602 40.30566944 67.41967602 36.81640625 61.2890625 C31.15698273 58.45935074 22.87931466 60.5262975 16.8334198 61.42315674 Z M-407.6102668 124.13249904 C-410.78822188 128.48853058 -410.32660371 132.9604483 -410.31730652 138.12008667 C-410.31957208 139.03383784 -410.32183763 139.94758902 -410.32417184 140.88902962 C-410.33052304 143.9636301 -410.32968176 147.03818663 -410.32885742 150.11279297 C-410.33184821 152.31199196 -410.33525056 154.51119042 -410.33903503 156.71038818 C-410.34788736 162.69382931 -410.35021367 168.67725614 -410.35085082 174.66070318 C-410.351799 179.65092309 -410.35547624 184.64113965 -410.35902292 189.63135827 C-410.36670636 200.72938394 -410.36969111 211.82740396 -410.36901756 222.92543195 C-410.36897761 223.59150913 -410.36893765 224.25758632 -410.36889648 224.94384766 C-410.3688556 225.61073731 -410.36881472 226.27762696 -410.3687726 226.96472539 C-410.36836613 237.77320404 -410.37793561 248.58164786 -410.39203485 259.39011644 C-410.40639468 270.48582883 -410.41312206 281.58152684 -410.41244107 292.67724907 C-410.41218574 298.90758899 -410.41505626 305.1378895 -410.42561913 311.36822128 C-410.43528045 317.22699934 -410.43539279 323.08570016 -410.42810249 328.9444809 C-410.4270542 331.09676094 -410.42943396 333.24904574 -410.43546295 335.4013176 C-410.44315131 338.33566037 -410.43855896 341.26973428 -410.43083191 344.20407104 C-410.43597547 345.0590329 -410.44111904 345.91399475 -410.44641846 346.79486454 C-410.42840176 352.80062721 -410.42840176 352.80062721 -408.18359375 358.2890625 C-404.04102848 361.48010747 -400.35397922 361.71496408 -395.30462646 361.66658592 C-394.51357309 361.67094624 -393.72251971 361.67530657 -392.90749502 361.67979902 C-390.24642533 361.69078136 -387.58587094 361.68031946 -384.92480469 361.67001343 C-383.0018932 361.67346881 -381.07898369 361.67823257 -379.15607834 361.68419516 C-373.8638411 361.69675118 -368.57176558 361.69051386 -363.27952766 361.68123651 C-357.57529718 361.67446517 -351.87109503 361.68491771 -346.16687012 361.69317627 C-334.98904586 361.70653629 -323.81128193 361.70362576 -312.63345528 361.69493835 C-303.55132679 361.68817113 -294.46921524 361.68724091 -285.38708496 361.6905098 C-283.45028905 361.69119934 -283.45028905 361.69119934 -281.47436595 361.69190282 C-278.85156027 361.69286197 -276.22875459 361.69383461 -273.60594893 361.6948206 C-249.69720044 361.70313697 -225.78848629 361.69450348 -201.87974328 361.67879281 C-180.04741537 361.66455567 -158.21513995 361.66582954 -136.3828125 361.68017578 C-111.86187938 361.69623482 -87.34097998 361.70255711 -62.82004166 361.69333899 C-60.20672862 361.69238331 -57.59341558 361.6914402 -54.98010254 361.6905098 C-53.69420565 361.69004697 -52.40830877 361.68958414 -51.08344531 361.68910729 C-42.00919564 361.68651389 -32.93496456 361.69089595 -23.86071777 361.69794846 C-12.80659207 361.70635064 -1.75253029 361.70411034 9.30158806 361.68810622 C14.94467056 361.68020624 20.58764636 361.67716129 26.23072815 361.68705368 C31.3923115 361.69596535 36.55368881 361.69112613 41.71525335 361.67512102 C43.58664543 361.67175822 45.45805476 361.67350073 47.32943583 361.68074839 C49.86568725 361.68982072 52.4012253 361.68056565 54.93743896 361.66658592 C55.67049963 361.67360942 56.4035603 361.68063292 57.15883493 361.68786925 C61.54521641 361.63927386 64.32400871 360.97947861 67.81640625 358.2890625 C70.47679063 353.93594308 70.09901209 349.16876487 70.07710266 344.22425842 C70.08092821 343.30950396 70.08475376 342.39474951 70.08869523 341.45227522 C70.09901647 338.3861752 70.09503472 335.32026276 70.09106445 332.25415039 C70.09541139 330.05627774 70.10059448 327.8584066 70.10655212 325.66053772 C70.1199549 319.68952994 70.12051939 313.7185854 70.11798882 307.74756551 C70.11692004 302.76479183 70.12180008 297.78203101 70.12659425 292.79926008 C70.13832854 280.37338916 70.1374618 267.94754645 70.13103744 255.52167451 C70.12586798 244.73337707 70.13712471 233.94516992 70.15613566 223.15689034 C70.17551272 212.07579519 70.18347886 200.99473675 70.1800124 189.91362375 C70.17819772 183.69388486 70.18085428 177.47422868 70.19472694 171.25450325 C70.20728258 165.40632923 70.20538255 159.5583362 70.19231606 153.71016502 C70.18994584 151.56314152 70.19270082 149.41610538 70.20093918 147.26909637 C70.21137047 144.3394698 70.20333487 141.41045462 70.19062805 138.48085022 C70.19800234 137.63016545 70.20537662 136.77948068 70.21297437 135.90301758 C70.16794074 130.97166636 69.56440045 127.5579177 66.81640625 123.2890625 C63.7660923 121.76390553 60.58789969 122.14820048 57.24131966 122.15484142 C56.44667472 122.15248919 55.65202979 122.15013696 54.8333047 122.14771345 C52.14212174 122.14100001 49.4509868 122.14148238 46.75979614 122.14189148 C44.82226388 122.13859432 42.8847323 122.13486907 40.94720161 122.13075 C35.60070204 122.12070522 30.2542137 122.11700924 24.90770602 122.11436069 C19.15027813 122.11046504 13.3928592 122.10088629 7.63543701 122.09214783 C-6.27858697 122.07236382 -20.1926117 122.06231534 -34.10664624 122.05342004 C-40.65214377 122.04904083 -47.19764048 122.04367312 -53.74313736 122.03843117 C-75.48934973 122.02141794 -97.23556115 122.0068971 -118.9817791 121.99968243 C-120.38854758 121.99920767 -121.79531607 121.99873178 -123.20208455 121.99825476 C-123.89973 121.99801839 -124.59737545 121.99778201 -125.31616167 121.99753847 C-128.85091117 121.99633725 -132.38566067 121.99512181 -135.92041016 121.99389648 C-136.62189741 121.99365633 -137.32338467 121.99341618 -138.04612912 121.99316876 C-160.80067927 121.98527217 -183.55517736 121.961833 -206.30970477 121.92934054 C-230.35416929 121.89506863 -254.398602 121.87533495 -278.44309151 121.87203819 C-291.55533419 121.86986888 -304.66750033 121.86105888 -317.77972031 121.83557701 C-328.94264454 121.81393394 -340.10547367 121.805788 -351.26841651 121.81554379 C-356.96810028 121.82010693 -362.66758755 121.81808589 -368.36724472 121.79878235 C-373.57951165 121.78128122 -378.79143681 121.78204132 -384.00370671 121.79767964 C-385.89469219 121.80007569 -387.78570055 121.79563004 -389.67665087 121.78385099 C-392.23713127 121.76888248 -394.79637693 121.77829892 -397.35682487 121.79407787 C-398.47126879 121.77874456 -398.47126879 121.77874456 -399.60822672 121.76310149 C-403.01823356 121.80931619 -404.8598657 122.04314057 -407.6102668 124.13249904 Z " fill="#34160D" transform="translate(426.18359375,68.7109375)"/>
<path d="M0 0 C1.14525146 0.00563965 2.29050293 0.0112793 3.47045898 0.01708984 C12.09686797 0.14049007 19.93747708 0.85399713 28.25 3.3125 C28.92289063 3.51117676 29.59578125 3.70985352 30.2890625 3.91455078 C56.96478302 12.00820689 78.96942409 29.6924845 92.4453125 54.23828125 C104.86287231 77.70591534 109.14259769 106.96360636 101.44921875 132.7265625 C101.05347656 133.90992188 100.65773438 135.09328125 100.25 136.3125 C99.86457031 137.47523438 99.47914063 138.63796875 99.08203125 139.8359375 C94.68620958 152.04181126 88.29341124 162.18692911 80.25 172.3125 C79.70859375 173.02148438 79.1671875 173.73046875 78.609375 174.4609375 C62.85563354 193.95420345 37.31878897 205.20653602 13.0703125 208.78125 C10.45879847 209.04758004 7.87287546 209.21643927 5.25 209.3125 C4.48171875 209.35246094 3.7134375 209.39242187 2.921875 209.43359375 C-22.92801969 210.16115701 -46.66262312 201.13737124 -66.75 185.3125 C-67.56855469 184.67828125 -68.38710937 184.0440625 -69.23046875 183.390625 C-88.28673952 167.60596178 -99.88564785 143.39195929 -103.75 119.3125 C-104.13222545 114.48972374 -104.18117551 109.71093666 -104.125 104.875 C-104.11484863 103.60309814 -104.10469727 102.33119629 -104.09423828 101.02075195 C-103.59874638 71.05117387 -90.95533205 46.7064751 -69.69140625 25.9453125 C-50.43201621 8.70649591 -25.65002117 -0.13281319 0 0 Z M-27.75 21.3125 C-28.78898437 21.663125 -29.82796875 22.01375 -30.8984375 22.375 C-54.24142388 31.19754603 -70.76029404 48.91306914 -80.90869141 71.32568359 C-89.32726588 91.20680927 -89.78633708 115.34271389 -81.92041016 135.43115234 C-72.96849549 157.34757432 -56.95831125 175.56156698 -34.96020508 184.98852539 C-10.90130315 194.64241901 13.34274831 194.47427654 37.25 184.3125 C47.68748883 179.36337225 56.17634291 172.4840196 64.25 164.3125 C64.91515625 163.65765625 65.5803125 163.0028125 66.265625 162.328125 C74.56065026 153.58471999 80.29787632 141.58503458 84.25 130.3125 C84.5696875 129.41402344 84.889375 128.51554687 85.21875 127.58984375 C91.50435705 105.96851951 87.77537332 82.33361151 77.24609375 62.86328125 C76.58495126 61.67732391 75.92000479 60.49347323 75.25 59.3125 C74.76660156 58.46042969 74.28320312 57.60835938 73.78515625 56.73046875 C61.17194754 36.43965474 41.07513232 24.1612527 18.25 18.3125 C3.34121106 15.03824181 -13.40516991 16.39057184 -27.75 21.3125 Z " fill="#34160C" transform="translate(255.75,205.6875)"/>
<path d="M0 0 C1.08655884 -0.00700928 2.17311768 -0.01401855 3.29260254 -0.02124023 C6.88803585 -0.03886056 10.48268354 -0.02718245 14.078125 -0.01367188 C16.57389477 -0.01636561 19.06966352 -0.02024703 21.56542969 -0.02526855 C26.79760775 -0.03116908 32.02958108 -0.02296334 37.26171875 -0.00390625 C43.30809512 0.01786244 49.35393196 0.01081088 55.40029526 -0.01121187 C61.22025466 -0.03156034 67.0400092 -0.02939482 72.85998535 -0.01768494 C75.33516515 -0.01501343 77.81035869 -0.01830224 80.28552246 -0.02760315 C83.74280459 -0.03774296 87.19904557 -0.02230206 90.65625 0 C91.68286743 -0.00809692 92.70948486 -0.01619385 93.76721191 -0.02453613 C100.68673461 0.0583076 100.68673461 0.0583076 103.94067383 2.38830566 C105.57027234 4.88919312 106.17241196 6.97151531 106.765625 9.89257812 C108.12474766 15.20165102 109.03061174 18.00940403 113.328125 21.51757812 C116.36936162 22.45911165 119.3520369 23.13586292 122.48828125 23.68164062 C125.91634123 24.69072568 127.11562711 25.7293179 129.328125 28.51757812 C129.83148956 31.37243652 129.83148956 31.37243652 129.83605957 34.7421875 C129.84733887 36.02085693 129.85861816 37.29952637 129.87023926 38.61694336 C129.86246223 40.03174055 129.85426957 41.4465355 129.84570312 42.86132812 C129.85112392 44.35295292 129.85824634 45.84457235 129.86694336 47.33618164 C129.88518504 51.3858044 129.8781059 55.43501973 129.86542702 59.48464966 C129.85530364 63.72154849 129.86469085 67.95841231 129.87097168 72.1953125 C129.87825003 79.31061062 129.86865552 86.42574271 129.84960938 93.54101562 C129.82784019 101.76860612 129.83489143 109.99580015 129.856915 118.22338104 C129.8750637 125.28592067 129.87762994 132.3483409 129.86716032 139.4108963 C129.86092244 143.62970987 129.86009774 147.84833706 129.87330627 152.06713867 C129.88485656 156.03338185 129.87685462 159.99911361 129.85372925 163.96530151 C129.84843768 165.4213679 129.84996366 166.8774773 129.85877991 168.33352661 C129.86969934 170.31999175 129.853582 172.30655088 129.83605957 174.29296875 C129.83455147 175.40498657 129.83304337 176.51700439 129.83148956 177.66271973 C129.21066204 181.18377544 128.1102197 182.34156005 125.328125 184.51757812 C122.70703125 185.42382812 122.70703125 185.42382812 119.890625 186.01757812 C113.91417829 187.52693465 113.91417829 187.52693465 109.328125 191.51757812 C108.08584073 194.45233225 107.21826146 197.46127143 106.328125 200.51757812 C104.11075384 207.01043291 104.11075384 207.01043291 101.51468563 208.69269085 C99.11320984 209.59865559 97.3419592 209.77158705 94.78065491 209.77827454 C93.87365341 209.78535934 92.96665192 209.79244415 92.03216553 209.79974365 C91.04452209 209.79726624 90.05687866 209.79478882 89.03930664 209.79223633 C87.47039925 209.79990273 87.47039925 209.79990273 85.86979675 209.807724 C82.40923353 209.82163431 78.94886913 209.82066216 75.48828125 209.81835938 C73.08458888 209.82224542 70.68089721 209.8265799 68.27720642 209.8313446 C63.2375974 209.83880986 58.19805843 209.83851323 53.15844727 209.83325195 C46.69748269 209.82745609 40.23680467 209.84438994 33.77588749 209.86759663 C28.8113792 209.88232172 23.84694012 209.88320734 18.88241386 209.8800869 C16.50016144 209.8806007 14.11790519 209.88584935 11.7356739 209.89589882 C8.40570527 209.90822225 5.07629742 209.90149578 1.74633789 209.88989258 C0.76071869 209.89753632 -0.22490051 209.90518005 -1.24038696 209.91305542 C-6.1659634 209.87508144 -9.72263598 209.82705953 -13.671875 206.51757812 C-15.23658733 203.38815347 -15.36889458 199.90675589 -14.671875 196.51757812 C-13.25311279 194.41656494 -13.25311279 194.41656494 -10.671875 192.51757812 C-7.43308636 191.92753148 -4.22990117 192.01270263 -0.94628906 192.06347656 C0.03940567 192.06289246 1.0251004 192.06230835 2.04066467 192.06170654 C5.2983015 192.06449297 8.55502304 192.09561222 11.8125 192.12695312 C14.07122294 192.1344135 16.32995236 192.14010739 18.58868408 192.144104 C24.53348665 192.15937619 30.47789828 192.19867215 36.42254639 192.24291992 C42.48867504 192.28383816 48.55486687 192.30210768 54.62109375 192.32226562 C66.52360926 192.36516447 78.42583462 192.43343536 90.328125 192.51757812 C90.46911621 191.57140625 90.61010742 190.62523437 90.75537109 189.65039062 C92.09077023 182.34611029 98.50227718 176.72950864 104.328125 172.51757812 C109.528125 169.51757812 109.528125 169.51757812 113.328125 169.51757812 C112.998125 126.94757813 112.668125 84.37757813 112.328125 40.51757812 C108.368125 38.53757813 104.408125 36.55757812 100.328125 34.51757812 C95.93540132 30.19243481 92.61346093 26.29813371 90.328125 20.51757812 C90.328125 19.52757812 90.328125 18.53757813 90.328125 17.51757812 C89.09894852 17.52423996 87.86977203 17.53090179 86.60334778 17.5377655 C75.02332701 17.59856284 63.44333859 17.64354422 51.86319447 17.67301464 C45.90962386 17.68867497 39.95618203 17.70992023 34.00268555 17.74389648 C28.25795411 17.77647641 22.51334659 17.79442837 16.76852989 17.80220985 C14.5760573 17.80775579 12.38359153 17.81858552 10.19117165 17.8347683 C7.12184582 17.85652407 4.05303302 17.85954578 0.98364258 17.8581543 C0.07589584 17.86894012 -0.83185089 17.87972595 -1.7671051 17.89083862 C-6.54614432 17.86737235 -9.81390704 17.67581292 -13.671875 14.51757812 C-15.23658733 11.38815347 -15.36889458 7.90675589 -14.671875 4.51757812 C-11.11527525 -0.96804111 -5.88389661 -0.04640625 0 0 Z " fill="#34160D" transform="translate(350.671875,205.482421875)"/>
<path d="M0 0 C0.94072861 -0.00852997 1.88145721 -0.01705994 2.85069275 -0.02584839 C4.39601181 -0.02448883 4.39601181 -0.02448883 5.97254944 -0.02310181 C7.05896225 -0.02981903 8.14537506 -0.03653625 9.26470947 -0.04345703 C12.86536702 -0.06249571 16.46583879 -0.06636408 20.06654358 -0.06851196 C22.56374184 -0.07493534 25.06093933 -0.08166335 27.55813599 -0.08868408 C32.796221 -0.10067122 38.03425869 -0.10444888 43.27235413 -0.10317993 C49.32605874 -0.10197812 55.37940705 -0.12308745 61.43302149 -0.15466726 C67.25774648 -0.18396991 73.08233035 -0.19115612 78.90712166 -0.18996048 C81.38510659 -0.19232499 83.863094 -0.20119596 86.34103203 -0.21662521 C89.80314297 -0.23616514 93.26433068 -0.23049393 96.72645569 -0.21841431 C97.75464417 -0.22965332 98.78283264 -0.24089233 99.84217834 -0.25247192 C106.78057832 -0.19078343 106.78057832 -0.19078343 110.04898071 2.17279053 C112.23356258 5.52456139 112.22238409 8.40874188 111.41419983 12.26742554 C109.54404889 14.69862176 108.13281638 15.90811726 105.41419983 17.26742554 C104.08375198 17.35876987 102.74884674 17.38936813 101.41526794 17.38768005 C100.57951736 17.38905472 99.74376678 17.39042938 98.88269043 17.3918457 C97.50489159 17.38645279 97.50489159 17.38645279 96.09925842 17.38095093 C95.13336288 17.38109695 94.16746735 17.38124298 93.17230225 17.38139343 C89.96905802 17.38069491 86.76587144 17.37290532 83.56263733 17.36508179 C81.34589164 17.36321739 79.12914554 17.36179359 76.91239929 17.36079407 C71.0696652 17.35697058 65.22695586 17.34714171 59.38423157 17.33609009 C53.42547439 17.32587236 47.46671323 17.32129567 41.50794983 17.31625366 C29.81002227 17.30551931 18.11211311 17.28844489 6.41419983 17.26742554 C6.20162537 18.43543701 6.20162537 18.43543701 5.98475647 19.62704468 C4.46757092 26.64816649 -0.72166067 31.88199941 -6.36314392 35.97836304 C-9.29599233 37.67931203 -12.46952881 38.93188067 -15.58580017 40.26742554 C-15.91580017 82.83742554 -16.24580017 125.40742554 -16.58580017 169.26742554 C-14.93580017 169.59742554 -13.28580017 169.92742554 -11.58580017 170.26742554 C-3.59842604 174.11319827 1.95063254 179.4482471 5.78529358 187.47055054 C6.41419983 189.26742554 6.41419983 189.26742554 6.41419983 192.26742554 C7.67065308 192.25854309 8.92710632 192.24966064 10.22163391 192.24050903 C22.05211835 192.15948557 33.88254663 192.09949001 45.71324539 192.06017685 C51.79580991 192.0392862 57.87815077 192.01094109 63.96058655 191.96566772 C69.82851617 191.92226344 75.69623042 191.89829957 81.56430817 191.88791656 C83.80507041 191.88051551 86.04582063 191.8660633 88.28649139 191.84450531 C91.42079304 191.81554396 94.55420036 191.81146657 97.68861389 191.81332397 C98.61865738 191.79894287 99.54870087 191.78456177 100.50692749 191.76974487 C106.79568892 191.8101735 106.79568892 191.8101735 109.98884583 194.17080688 C111.96932669 197.08398713 111.97858862 198.93754926 111.81263733 202.36508179 C111.20524406 205.26508692 109.74920191 206.55051224 107.41419983 208.26742554 C105.0791219 209.4349645 103.70883644 209.39804766 101.10723877 209.40786743 C100.2029866 209.41357758 99.29873444 209.41928772 98.36708069 209.4251709 C97.3722467 209.42628876 96.37741272 209.42740662 95.35243225 209.42855835 C94.30678604 209.43352325 93.26113983 209.43848816 92.18380737 209.44360352 C88.71242116 209.45825071 85.24108066 209.46503155 81.76966858 209.47055054 C79.36311847 209.47630006 76.95656838 209.48205781 74.55001831 209.48782349 C69.49847703 209.49834088 64.4469517 209.50417866 59.395401 209.50765991 C52.91870417 209.51314494 46.44221755 209.53717024 39.96558666 209.56563187 C34.99250674 209.58424517 30.01947756 209.58946316 25.04636574 209.59099579 C22.65852522 209.594026 20.27068568 209.60206685 17.88287926 209.61518097 C14.54314006 209.63221312 11.20391587 209.63036786 7.864151 209.62387085 C6.87538971 209.63308563 5.88662842 209.64230042 4.86790466 209.65179443 C-3.73188629 209.59932052 -3.73188629 209.59932052 -7.58580017 206.26742554 C-8.80845642 203.30648804 -8.80845642 203.30648804 -9.64830017 199.89242554 C-11.02676451 194.36586342 -12.58346426 190.18558459 -17.55455017 187.00961304 C-20.44031882 185.95519757 -23.34218823 185.5121165 -26.36705017 185.02523804 C-29.34780741 184.0071625 -30.60646803 182.71579899 -32.58580017 180.26742554 C-33.08916473 177.41256714 -33.08916473 177.41256714 -33.09373474 174.04281616 C-33.10501404 172.76414673 -33.11629333 171.48547729 -33.12791443 170.1680603 C-33.1201374 168.75326312 -33.11194474 167.33846816 -33.1033783 165.92367554 C-33.10879909 164.43205075 -33.11592151 162.94043131 -33.12461853 161.44882202 C-33.14286021 157.39919926 -33.13578107 153.34998393 -33.12310219 149.300354 C-33.11297881 145.06345518 -33.12236602 140.82659135 -33.12864685 136.58969116 C-33.1359252 129.47439304 -33.12633069 122.35926096 -33.10728455 115.24398804 C-33.08551536 107.01639754 -33.09256661 98.78920351 -33.11459017 90.56162262 C-33.13273888 83.499083 -33.13530511 76.43666277 -33.12483549 69.37410736 C-33.11859761 65.15529379 -33.11777291 60.93666661 -33.13098145 56.71786499 C-33.14253173 52.75162181 -33.13452979 48.78589005 -33.11140442 44.81970215 C-33.10611285 43.36363576 -33.10763883 41.90752637 -33.11645508 40.45147705 C-33.12737452 38.46501191 -33.11125717 36.47845278 -33.09373474 34.49203491 C-33.09222664 33.38001709 -33.09071854 32.26799927 -33.08916473 31.12228394 C-32.46768747 27.59754319 -31.38201455 26.43482549 -28.58580017 24.26742554 C-25.74595642 23.43148804 -25.74595642 23.43148804 -22.64830017 22.89242554 C-16.76452444 21.54250429 -16.76452444 21.54250429 -12.53111267 17.35336304 C-10.74791643 13.41854159 -9.65498648 9.27011229 -8.57798767 5.09555054 C-6.97179315 0.5172638 -4.45582482 0.01825814 0 0 Z " fill="#34160D" transform="translate(64.58580017089844,205.73257446289063)"/>
<path d="M0 0 C0.66 -0.0103125 1.32 -0.020625 2 -0.03125 C5.00101226 0.76589388 6.16507889 2.0155493 8 4.5 C8.390625 7.734375 8.390625 7.734375 8.25 11.25 C8.21390625 12.42046875 8.1778125 13.5909375 8.140625 14.796875 C8.09421875 15.68890625 8.0478125 16.5809375 8 17.5 C9.36318359 17.66822266 9.36318359 17.66822266 10.75390625 17.83984375 C18.47721088 19.41052784 24.54037115 26.29427308 29 32.5 C32.50821972 38.44655684 33.22234788 45.7626495 32 52.5 C29.75953974 55.29582858 28.4943502 56.34222866 25.0625 57.4375 C21.28006954 57.51469246 19.96612073 56.81490512 17 54.5 C15.77734375 51.5390625 15.77734375 51.5390625 14.9375 48.125 C13.55343665 42.57599025 11.97506344 38.47142758 7.0546875 35.2109375 C3.08694746 33.83806927 -0.8708233 33.97162194 -5 34.5 C-9.40608743 36.66298837 -12.1987497 38.89680479 -14 43.5 C-14.68829606 48.5729969 -14.59408188 52.33305346 -12.25 56.9375 C-7.84621499 61.95292182 -4.28210958 63.03620298 2.25 63.9375 C13.08254032 65.67585883 19.89364253 68.78643973 27 77.5 C32.63960679 86.61763518 33.60567834 97.08099224 31.3515625 107.49609375 C29.20252741 113.38298047 25.90286885 118.54998552 21 122.5 C18.89406881 123.45966484 16.76738205 124.37472752 14.625 125.25 C11.46996092 126.53200342 11.46996092 126.53200342 9 128.5 C8.04652766 131.74530494 7.98189421 134.32851771 8.1875 137.6953125 C8 140.5 8 140.5 6.18359375 142.80859375 C3.36873064 144.98897966 1.55192206 145.42751179 -2 145.5 C-6.56521739 143.36956522 -6.56521739 143.36956522 -8 140.5 C-7.96519531 139.63890625 -7.93039063 138.7778125 -7.89453125 137.890625 C-7.80448433 134.44311417 -7.93863474 131.79239837 -9 128.5 C-11.83751106 126.39748003 -14.65002075 125.23977775 -17.9140625 123.90625 C-24.20649963 121.0388103 -27.59531939 115.88674982 -30.4375 109.75 C-32.41757517 104.21264693 -33.15629494 98.29847905 -32 92.5 C-30.15415884 90.09554901 -28.95485578 88.75363357 -26 87.96875 C-25.01 87.98421875 -25.01 87.98421875 -24 88 C-23.34 87.9896875 -22.68 87.979375 -22 87.96875 C-19.06821335 88.74750583 -17.87557161 90.15055785 -16 92.5 C-15.12890625 95.0859375 -15.12890625 95.0859375 -14.5625 97.875 C-13.27133629 103.07436356 -11.98072726 105.88957295 -8 109.5 C-3.35083196 111.87624144 1.06006009 112.03512077 6 110.5 C9.75644319 108.28254015 12.36642009 105.56167368 14 101.5 C14.70439351 96.53648296 14.53310707 92.58595884 12.3125 88.0625 C7.77777111 83.03753015 3.33477052 82.03763578 -3.1875 81.1875 C-12.80177075 79.69685172 -20.67610806 76.40394655 -26.75 68.44921875 C-32.41557632 59.61446067 -33.02497919 50.71809155 -32 40.5 C-29.83999092 31.51487346 -23.12956734 24.74993109 -15.87109375 19.41015625 C-13.31885737 18.16867175 -10.79661678 17.87262075 -8 17.5 C-8.04640625 16.60796875 -8.0928125 15.7159375 -8.140625 14.796875 C-8.19476563 13.04117188 -8.19476563 13.04117188 -8.25 11.25 C-8.29640625 10.08984375 -8.3428125 8.9296875 -8.390625 7.734375 C-8 4.5 -8 4.5 -6.234375 2.109375 C-3.87988376 0.41348271 -2.85547686 -0.04461683 0 0 Z " fill="#34160C" transform="translate(256,237.5)"/>
<path d="M0 0 C5.82485779 3.51996782 10.54466582 8.98962934 12.5625 15.5 C13.38264859 23.48214388 13.49032443 30.88125543 8.5625 37.5 C3.70468381 43.27686249 -1.38192303 46.47235523 -8.8125 47.4375 C-16.61989586 47.88730882 -23.43134871 45.55062722 -29.4375 40.5 C-35.44450537 32.45810121 -36.20058287 25.45325489 -35.4375 15.5 C-33.77311428 8.84245713 -28.96538702 4.30878622 -23.4375 0.5 C-16.65568202 -2.91366677 -6.96443471 -3.08620048 0 0 Z M-16.8125 17.0625 C-19.0371142 20.3994213 -18.93780235 22.56905293 -18.4375 26.5 C-16.90359879 28.92194927 -15.74341626 29.38729401 -13.0625 30.375 C-9.66610594 30.53673305 -8.15189577 29.46039694 -5.4375 27.5 C-4.06752255 26.34254513 -4.06752255 26.34254513 -4.125 23.1875 C-4.13659799 19.52668938 -4.13659799 19.52668938 -6.0625 17.0625 C-9.96417311 14.49560979 -12.91082689 14.49560979 -16.8125 17.0625 Z " fill="#34160C" transform="translate(427.4375,287.5)"/>
<path d="M0 0 C5.82485779 3.51996782 10.54466582 8.98962934 12.5625 15.5 C13.38264859 23.48214388 13.49032443 30.88125543 8.5625 37.5 C3.70468381 43.27686249 -1.38192303 46.47235523 -8.8125 47.4375 C-16.61989586 47.88730882 -23.43134871 45.55062722 -29.4375 40.5 C-35.44450537 32.45810121 -36.20058287 25.45325489 -35.4375 15.5 C-33.77311428 8.84245713 -28.96538702 4.30878622 -23.4375 0.5 C-16.65568202 -2.91366677 -6.96443471 -3.08620048 0 0 Z M-16.8125 17.0625 C-19.0371142 20.3994213 -18.93780235 22.56905293 -18.4375 26.5 C-16.90359879 28.92194927 -15.74341626 29.38729401 -13.0625 30.375 C-9.66610594 30.53673305 -8.15189577 29.46039694 -5.4375 27.5 C-4.06752255 26.34254513 -4.06752255 26.34254513 -4.125 23.1875 C-4.13659799 19.52668938 -4.13659799 19.52668938 -6.0625 17.0625 C-9.96417311 14.49560979 -12.91082689 14.49560979 -16.8125 17.0625 Z " fill="#34160C" transform="translate(107.4375,287.5)"/>
</svg>
