<?xml version="1.0" encoding="UTF-8"?>
<svg version="1.1" xmlns="http://www.w3.org/2000/svg" width="512" height="512">
<path d="M0 0 C147.84 0 295.68 0 448 0 C448 31.68 448 63.36 448 96 C432.16 96 416.32 96 400 96 C400.01571045 102.47109375 400.0314209 108.9421875 400.04760742 115.609375 C400.09727143 136.96725495 400.13058901 158.32513714 400.15543652 179.68305969 C400.17090505 192.63492781 400.1919944 205.58674122 400.22631836 218.53857422 C400.25622102 229.82745208 400.2755751 241.11629032 400.28226548 252.40520668 C400.28617624 258.38253306 400.295367 264.35974608 400.31719017 270.33703613 C400.33756888 275.96434233 400.34383093 281.5914886 400.33932304 287.2188282 C400.34014762 289.28277519 400.34610492 291.34672758 400.35761642 293.41064262 C400.37258207 296.23253467 400.36893865 299.05382595 400.36076355 301.87573242 C400.36950207 302.68898357 400.3782406 303.50223473 400.38724393 304.34012985 C400.3151489 313.57186362 396.98392714 319.95968705 390.67578125 326.66015625 C383.56067705 332.88197729 375.25347786 336.11510129 365.85521507 336.13422108 C364.32473048 336.14090784 364.32473048 336.14090784 362.763327 336.14772969 C361.64923762 336.14754533 360.53514825 336.14736097 359.38729858 336.14717102 C358.19839039 336.15084771 357.0094822 336.1545244 355.78454649 336.1583125 C352.48780651 336.16742138 349.19111623 336.17204507 345.89436841 336.17470181 C342.33728596 336.17861258 338.78021782 336.18819032 335.22314453 336.19691467 C326.63481966 336.21665655 318.04649364 336.22674208 309.45815176 336.23564246 C305.41103091 336.24002881 301.36391136 336.24539469 297.31679153 336.25063133 C283.85888376 336.26764079 270.40097679 336.28213447 256.94305992 336.28938007 C253.45243707 336.29128988 249.96181423 336.29321022 246.47119141 336.29516602 C245.60364482 336.29564976 244.73609822 336.2961335 243.84226234 336.2966319 C229.79174213 336.30493045 215.7413071 336.33026567 201.69082408 336.36274669 C187.25696257 336.39584129 172.82314432 336.41383097 158.38924468 336.41702431 C150.28858062 336.41918711 142.18804081 336.42790205 134.08741379 336.45348549 C127.18802454 336.47522526 120.28878974 336.48322682 113.38937013 336.47351871 C109.87198903 336.46898353 106.35492638 336.47081402 102.83758926 336.49028015 C99.0163266 336.50798941 95.19586678 336.50089624 91.37460327 336.48774719 C89.7235457 336.50420106 89.7235457 336.50420106 88.03913343 336.52098733 C76.26208139 336.4234385 65.92454197 332.42993183 57.25 324.375 C50.08235335 316.63394162 47.84254008 307.83446504 47.87974548 297.54656982 C47.87889106 296.68560613 47.87803663 295.82464243 47.87715632 294.93758893 C47.87550703 292.04788979 47.88101391 289.15824849 47.88647461 286.26855469 C47.88675663 284.19902549 47.88659846 282.12949618 47.8860321 280.05996704 C47.88574469 274.43640758 47.89163236 268.81286936 47.89860606 263.18931484 C47.90484895 257.31430099 47.90544414 251.43928668 47.90663147 245.56427002 C47.90974202 234.4367016 47.9179517 223.30914298 47.92798096 212.18157887 C47.93915065 199.51425564 47.94465471 186.84693194 47.94967639 174.17960501 C47.96013453 148.11972998 47.9784766 122.0598684 48 96 C32.16 96 16.32 96 0 96 C0 64.32 0 32.64 0 0 Z M17 17 C17 37.79 17 58.58 17 80 C27.23 80 37.46 80 48 80 C48 59.21 48 38.42 48 17 C37.77 17 27.54 17 17 17 Z M136 27 C135.06207378 28.23343003 134.12253245 29.4656383 133.1796875 30.6953125 C132.39929849 31.83027592 131.63096631 32.9736252 130.875 34.125 C130.4610498 34.7526123 130.04709961 35.38022461 129.62060547 36.02685547 C118.15606652 53.96266727 112.58807033 74.56859736 112.6875 95.75 C112.69241455 96.9877417 112.6973291 98.2254834 112.70239258 99.50073242 C112.81620803 108.38008878 113.48298199 116.44416862 116 125 C116.3403125 126.22074219 116.680625 127.44148438 117.03125 128.69921875 C125.71884035 157.25673704 146.09242997 180.77804405 172.15039062 195.015625 C198.12676883 208.84043452 228.30478262 211.32937762 256.47631836 203.23535156 C273.10115969 198.03143852 287.95284823 188.36497182 301 177 C301.61359375 176.47148437 302.2271875 175.94296875 302.859375 175.3984375 C317.15788139 162.12125299 326.82195871 143.57426175 332 125 C332.3196875 123.91332031 332.639375 122.82664062 332.96875 121.70703125 C337.55190087 103.26833633 336.76554495 82.07765995 331 64 C330.78569336 63.31550781 330.57138672 62.63101563 330.35058594 61.92578125 C325.77182009 47.71627793 318.78414199 35.32802751 309 24 C308.67517293 23.4290841 308.35034586 22.8581682 308.01567554 22.26995182 C305.77856542 18.8155875 304.04203404 17.22763376 299.95607567 16.33505058 C295.94217665 16.06401406 291.97835202 16.01832031 287.95776367 16.04663086 C286.41482162 16.03222426 284.87190453 16.01489062 283.32902527 15.99485779 C279.14677813 15.95019045 274.96565396 15.95015101 270.78322387 15.96092677 C267.28682695 15.96616347 263.79065119 15.95028812 260.29429513 15.93467718 C252.04164163 15.89845666 243.78954833 15.89911624 235.53686523 15.92260742 C227.03608117 15.94615478 218.53719024 15.90750112 210.03669947 15.83807081 C202.72766583 15.780593 195.41922992 15.76205777 188.10998136 15.77442271 C183.74920153 15.78140535 179.38971442 15.77384794 175.02913475 15.7287426 C170.92498652 15.68797884 166.82371512 15.6960812 162.71963692 15.74086952 C161.21889241 15.74925597 159.71793862 15.7408083 158.21741486 15.71373749 C147.4308056 15.53358398 142.18859328 17.89163408 136 27 Z M65 17 C65 95.87 65 174.74 65 256 C73.91 258.475 73.91 258.475 83 261 C99.79778626 268.73231431 111.48692206 279.09042816 120.125 295.5 C120.61274902 296.39658325 120.61274902 296.39658325 121.11035156 297.3112793 C124.84960866 304.74129347 125.86672592 311.46690366 128 320 C191.36 320 254.72 320 320 320 C321.32 315.05 322.64 310.1 324 305 C327.30614737 297.52523204 330.53805268 291.98213278 336 286 C336 285.34 336 284.68 336 284 C336.57878906 283.73703125 337.15757812 283.4740625 337.75390625 283.203125 C340.11313426 281.93939939 341.90297172 280.48383984 343.9375 278.75 C355.60780618 269.60762659 369.67377382 266.38770436 384 264 C384 182.49 384 100.98 384 17 C364.86 17 345.72 17 326 17 C327.56400721 20.12801442 329.23583036 23.05464315 331.07128906 26.0234375 C338.47263767 38.04219746 344.08323971 50.41634197 348 64 C348.32226562 65.11632812 348.64453125 66.23265625 348.9765625 67.3828125 C356.46368574 99.22057956 350.11447153 133.91113855 334 162 C328.49920875 170.70056717 322.11095077 178.56285882 315 186 C314.39027344 186.67289063 313.78054688 187.34578125 313.15234375 188.0390625 C307.20240121 194.38061485 300.198873 199.19462464 293 204 C292.06542969 204.63035156 291.13085938 205.26070312 290.16796875 205.91015625 C262.58965525 223.23044184 226.21015125 227.95913247 194.62255859 220.83911133 C170.87245192 214.84199385 150.56220305 202.91271329 133 186 C132.03320312 185.12794922 132.03320312 185.12794922 131.046875 184.23828125 C125.03928994 178.66582502 120.54033369 171.77053951 116 165 C115.05253906 163.59621094 115.05253906 163.59621094 114.0859375 162.1640625 C97.39797824 135.5700087 92.99272298 101.79573332 98.125 71.125 C98.69288416 68.73569935 99.31882636 66.35950259 100 64 C100.18804199 63.31437988 100.37608398 62.62875977 100.56982422 61.92236328 C104.70808367 47.09113111 111.20423893 32.6979799 120.86328125 20.63330078 C122.19041234 19.05805909 122.19041234 19.05805909 122 17 C103.19 17 84.38 17 65 17 Z M400 17 C400 37.79 400 58.58 400 80 C410.23 80 420.46 80 431 80 C431 59.21 431 38.42 431 17 C420.77 17 410.54 17 400 17 Z M65 273 C64.87543141 277.26829471 64.7852136 281.53559796 64.7253418 285.80517578 C64.70035764 287.25425674 64.66635731 288.70321375 64.62280273 290.15185547 C64.19533207 301.99565434 64.19533207 301.99565434 70 312 C75.99171564 318.08961626 82.39514083 319.8362298 90.72387695 320.07958984 C93.79568343 320.09814455 96.86574402 320.0872876 99.9375 320.0625 C101.00291016 320.05798828 102.06832031 320.05347656 103.16601562 320.04882812 C105.77740291 320.03711787 108.38867124 320.02071724 111 320 C107.47948671 303.85967834 100.67485087 290.62857695 86.3984375 281.42578125 C85.60695313 280.95527344 84.81546875 280.48476563 84 280 C83.33226563 279.60167969 82.66453125 279.20335937 81.9765625 278.79296875 C78.19494857 276.73237504 74.40622212 275.49338427 70.24609375 274.390625 C69.26181396 274.12797852 68.27753418 273.86533203 67.26342773 273.59472656 C66.51649658 273.3984668 65.76956543 273.20220703 65 273 Z M347.55859375 297.04296875 C341.92321872 303.55591363 338.06755024 311.40752249 337 320 C340.77076545 320.05899621 344.54140926 320.09392568 348.3125 320.125 C349.8912793 320.15013672 349.8912793 320.15013672 351.50195312 320.17578125 C361.23320661 320.23566589 370.93376127 319.92621621 379 314 C383.09607704 308.82600795 384.13358866 305.04595925 384.09765625 298.578125 C384.09443359 297.55332031 384.09121094 296.52851563 384.08789062 295.47265625 C384.07951172 294.40917969 384.07113281 293.34570312 384.0625 292.25 C384.05798828 291.17105469 384.05347656 290.09210938 384.04882812 288.98046875 C384.03705727 286.32025617 384.02061399 283.66015635 384 281 C370.33935936 281 357.27175143 287.85335716 347.55859375 297.04296875 Z " fill="#34160C" transform="translate(32,160)"/>
<path d="M0 0 C2.52561371 2.02216911 3.75180786 3.37124658 4.9375 6.375 C5.02530989 10.06301527 4.08376995 11.97517266 2 15 C-0.75170897 16.34229706 -3.33124634 16.88125982 -6.33203125 17.4140625 C-13.71453362 18.75221193 -19.41223579 20.41223579 -24.8125 25.8125 C-27.46441147 29.45432807 -27.46441147 29.45432807 -30 36 C-13.5 36 3 36 20 36 C20.99 32.7 21.98 29.4 23 26 C27.3987965 15.25581316 33.28290341 6.14862579 44 1 C54.63947972 -2.10294863 68.28234407 -1.18167368 78 4 C78.79664063 4.42410156 79.59328125 4.84820312 80.4140625 5.28515625 C89.90006876 10.97993258 95.25191351 19.77794592 99 30 C99.37113621 31.65865813 99.71666591 33.32410899 100 35 C100.96421875 35.02578125 101.9284375 35.0515625 102.921875 35.078125 C104.18515625 35.13484375 105.4484375 35.1915625 106.75 35.25 C108.62945312 35.31960937 108.62945312 35.31960937 110.546875 35.390625 C114.45703292 36.08065287 115.71085229 36.80425914 118 40 C118.53125 42 118.53125 42 118.5 44 C118.51546875 44.99 118.51546875 44.99 118.53125 46 C117.73098042 49.01277958 116.49414938 50.14950207 114 52 C110.546875 52.609375 110.546875 52.609375 106.75 52.75 C105.48671875 52.80671875 104.2234375 52.8634375 102.921875 52.921875 C101.95765625 52.94765625 100.9934375 52.9734375 100 53 C99.84144531 53.61746094 99.68289063 54.23492187 99.51953125 54.87109375 C96.41648003 66.13465536 91.2644084 75.90123573 81.1875 82.25 C71.83126067 87.44174111 62.74578711 89.58872522 52 88 C49.49599266 86.15941302 48.26970788 85.01537086 47.46875 82 C47.4790625 81.34 47.489375 80.68 47.5 80 C47.48453125 79.01 47.48453125 79.01 47.46875 78 C48.26637248 74.99718597 49.53487255 73.87365564 52 72 C55.42578125 71.09375 55.42578125 71.09375 59.3125 70.5 C68.258599 68.94392356 73.57251219 66.68894107 79 59 C79.99 56.69 80.98 54.38 82 52 C65.5 52 49 52 32 52 C31.01 55.3 30.02 58.6 29 62 C24.6012035 72.74418684 18.71709659 81.85137421 8 87 C-2.52842552 90.04813571 -15.32460507 88.96095091 -25 84 C-26.30710937 83.34644531 -26.30710937 83.34644531 -27.640625 82.6796875 C-37.6392562 77.20139555 -43.20988294 69.68844728 -47 59 C-47.55886985 56.60720909 -47.83606607 54.459009 -48 52 C-49.44632813 52.06960938 -49.44632813 52.06960938 -50.921875 52.140625 C-52.18515625 52.17671875 -53.4484375 52.2128125 -54.75 52.25 C-56.00296875 52.29640625 -57.2559375 52.3428125 -58.546875 52.390625 C-62 52 -62 52 -64.421875 50.234375 C-66.08275798 47.88282781 -66.54430715 46.83565789 -66.5 44 C-66.5103125 43.34 -66.520625 42.68 -66.53125 42 C-65.72881508 38.97906852 -64.51640747 37.83454222 -62 36 C-58.546875 35.609375 -58.546875 35.609375 -54.75 35.75 C-53.48671875 35.78609375 -52.2234375 35.8221875 -50.921875 35.859375 C-49.95765625 35.90578125 -48.9934375 35.9521875 -48 36 C-47.91363281 35.38253906 -47.82726562 34.76507813 -47.73828125 34.12890625 C-46.04152821 23.90168838 -41.28254672 14.60130182 -32.78125 8.375 C-22.72315361 2.00911621 -12.07956578 -2.09276554 0 0 Z M43 24 C39.56331402 29.69654758 39.56331402 29.69654758 38 36 C52.52 36 67.04 36 82 36 C79.81917614 28.36711648 77.48818564 24.12335726 70.99609375 19.60546875 C61.18159384 14.49036106 49.78041417 14.64494743 43 24 Z M-30 52 C-28.7924598 59.24524119 -26.46091709 62.29107805 -21 67 C-14.63912623 70.62629252 -7.80712331 72.47589041 -0.5 71.5625 C8.31212874 67.62851395 10.47852059 60.80369852 14 52 C-0.52 52 -15.04 52 -30 52 Z " fill="#34160C" transform="translate(230,212)"/>
<path d="M0 0 C2.82329337 1.64408639 4.9145946 3.76053395 7.15625 6.11865234 C7.80944717 6.76892899 8.46264435 7.41920563 9.13563538 8.08918762 C11.27925324 10.23397277 13.38916968 12.40891655 15.5 14.5859375 C16.98499514 16.08518976 18.47192299 17.58252995 19.96069336 19.07803345 C23.86699777 23.01297551 27.74510421 26.97462579 31.61834717 30.94207764 C35.57278471 34.98164184 39.55578426 38.99283868 43.53515625 43.0078125 C49.32998975 48.86606509 55.11844098 54.73048986 60.87890625 60.62255859 C61.79205345 61.55152199 61.79205345 61.55152199 62.72364807 62.49925232 C67.863686 67.77317396 67.863686 67.77317396 68.3125 71.8125 C67.91767403 75.83972491 66.87697023 77.19098275 64 80 C60.97558594 80.56762695 60.97558594 80.56762695 57.484375 80.48828125 C56.23398437 80.47216797 54.98359375 80.45605469 53.6953125 80.43945312 C52.39335937 80.39755859 51.09140625 80.35566406 49.75 80.3125 C48.43257813 80.28994141 47.11515625 80.26738281 45.7578125 80.24414062 C42.50406596 80.18519594 39.25260329 80.10295053 36 80 C36.0314209 81.91462036 36.0314209 81.91462036 36.06347656 83.86791992 C36.13596431 88.61080677 36.18183187 93.3536448 36.21972656 98.09692383 C36.23982199 100.14843993 36.26710324 102.19989889 36.30175781 104.2512207 C36.35036669 107.20278025 36.37298952 110.15358148 36.390625 113.10546875 C36.41127014 114.02023483 36.43191528 114.93500092 36.45318604 115.87748718 C36.45363922 117.1682592 36.45363922 117.1682592 36.45410156 118.48510742 C36.46298401 119.23789474 36.47186646 119.99068207 36.48101807 120.76628113 C35.76379472 124.09687398 34.47967702 125.68214595 32 128 C28.77453613 128.62818909 28.77453613 128.62818909 24.90820312 128.63110352 C23.84894875 128.64183647 23.84894875 128.64183647 22.76829529 128.65278625 C20.43861809 128.66966809 18.11086687 128.65027679 15.78125 128.62890625 C14.1598698 128.62973501 12.53848968 128.63219467 10.91711426 128.63621521 C7.52081988 128.63907282 4.12518511 128.62437651 0.72900391 128.59692383 C-3.62259468 128.56284032 -7.97301384 128.56885915 -12.32466888 128.5875864 C-15.67219864 128.59815933 -19.01945434 128.58921607 -22.36695862 128.57420158 C-23.97131028 128.56902141 -25.57569059 128.5694996 -27.18003845 128.57574654 C-29.42338508 128.58120262 -31.66504838 128.56081471 -33.90820312 128.53344727 C-35.18409302 128.52724869 -36.45998291 128.52105011 -37.77453613 128.5146637 C-41 128 -41 128 -43.41485596 126.2474823 C-45.2020355 123.71354577 -45.48930445 122.56948708 -45.45410156 119.50683594 C-45.45364838 118.18591949 -45.45364838 118.18591949 -45.45318604 116.83831787 C-45.43254089 115.89651672 -45.41189575 114.95471558 -45.390625 113.984375 C-45.38496521 113.01340881 -45.37930542 112.04244263 -45.37347412 111.04205322 C-45.35110311 107.94419831 -45.30090473 104.84750467 -45.25 101.75 C-45.22993597 99.64845422 -45.21168503 97.54689028 -45.1953125 95.4453125 C-45.1512358 90.2964283 -45.08220258 85.14841097 -45 80 C-46.24088379 80.0314209 -46.24088379 80.0314209 -47.50683594 80.06347656 C-51.2544337 80.14661619 -55.00183749 80.19865531 -58.75 80.25 C-60.05195313 80.28351563 -61.35390625 80.31703125 -62.6953125 80.3515625 C-63.94570312 80.36445312 -65.19609375 80.37734375 -66.484375 80.390625 C-67.63647461 80.41157227 -68.78857422 80.43251953 -69.97558594 80.45410156 C-73 80 -73 80 -75.40722656 78.47558594 C-77.62267959 75.03219328 -77.78752952 71.93007024 -77 68 C-75.36196074 65.21393025 -73.20384666 63.09864911 -70.90063477 60.84960938 C-70.2518486 60.18519836 -69.60306244 59.52078735 -68.93461609 58.83624268 C-66.79002377 56.65142957 -64.6174583 54.49719846 -62.44140625 52.34375 C-60.93728917 50.83170145 -59.43428855 49.31854155 -57.93235779 47.80432129 C-54.78179674 44.63746384 -51.61698272 41.48576301 -48.44165039 38.34375 C-44.37720253 34.31927032 -40.35227455 30.25774091 -36.33747959 26.18379974 C-33.24192634 23.05179636 -30.12540547 19.94134815 -27.00227165 16.83686829 C-25.50961448 15.3476946 -24.02373226 13.8516975 -22.54489326 12.34880066 C-20.47221676 10.24847997 -18.37277208 8.17914161 -16.26391602 6.11523438 C-15.66042328 5.49195251 -15.05693054 4.86867065 -14.43515015 4.22650146 C-10.01393628 -0.01368962 -6.0962834 -1.63658323 0 0 Z M-9.06079102 23.93139648 C-9.92160782 24.78906113 -10.78242462 25.64672577 -11.66932678 26.53038025 C-12.61431419 27.47715742 -13.55917089 28.42406507 -14.50390625 29.37109375 C-15.46640102 30.33291551 -16.42904425 31.29458873 -17.39183044 32.25611877 C-19.41186021 34.27467144 -21.43006286 36.29502915 -23.44702148 38.31665039 C-26.03867945 40.91400565 -28.63479968 43.50684694 -31.23230076 46.0983572 C-33.22173053 48.08418167 -35.20878241 50.07237168 -37.19511223 52.06129646 C-38.15170711 53.0185607 -39.10905162 53.9750764 -40.06714058 54.93084526 C-41.40337458 56.26455328 -42.73608285 57.60179093 -44.06860352 58.93920898 C-44.82947769 59.70087875 -45.59035187 60.46254852 -46.37428284 61.24729919 C-48.11334146 62.72376296 -48.11334146 62.72376296 -48 64 C-46.87980469 64.01417969 -45.75960937 64.02835938 -44.60546875 64.04296875 C-43.13277131 64.08986994 -41.66011632 64.13811734 -40.1875 64.1875 C-39.44951172 64.19330078 -38.71152344 64.19910156 -37.95117188 64.20507812 C-35.79296875 64.29296875 -35.79296875 64.29296875 -32 65 C-28.1689184 69.35769075 -28.52723558 74.17769111 -28.48828125 79.67578125 C-28.47164429 80.49639038 -28.45500732 81.31699951 -28.43786621 82.16247559 C-28.38026529 85.21222608 -28.34786369 88.2624106 -28.3125 91.3125 C-28.209375 98.139375 -28.10625 104.96625 -28 112 C-12.49 112 3.02 112 19 112 C19.21002788 97.65486618 19.21002788 97.65486618 19.38793945 83.30932617 C19.42022152 81.51218572 19.45359412 79.71506439 19.48828125 77.91796875 C19.49764709 76.51593201 19.49764709 76.51593201 19.50720215 75.08557129 C19.52714233 74.19261353 19.54708252 73.29965576 19.56762695 72.37963867 C19.57873001 71.60464523 19.58983307 70.82965179 19.60127258 70.03117371 C20.11010322 67.43911865 20.88586148 66.555595 23 65 C25.79251583 64.62325482 28.38779201 64.39808059 31.1875 64.3125 C31.93708984 64.27833984 32.68667969 64.24417969 33.45898438 64.20898438 C35.30546838 64.12665706 37.15270994 64.06164719 39 64 C34.37936741 58.45569952 29.463966 53.31781443 24.35546875 48.22265625 C23.13988029 47.00563271 23.13988029 47.00563271 21.8997345 45.76402283 C20.19911444 44.06272598 18.49724579 42.3626764 16.79418945 40.66381836 C14.17477713 38.04980335 11.56079589 35.43044145 8.94726562 32.81054688 C7.29198759 31.15592889 5.63639978 29.50162073 3.98046875 27.84765625 C3.19512253 27.0602858 2.40977631 26.27291534 1.60063171 25.46168518 C0.87930557 24.7435112 0.15797943 24.02533722 -0.58520508 23.28540039 C-1.22218826 22.6492128 -1.85917145 22.01302521 -2.51545715 21.3575592 C-5.48697207 18.64021936 -6.61269373 21.48585633 -9.06079102 23.93139648 Z " fill="#34160C" transform="translate(268,16)"/>
</svg>
