<?xml version="1.0" encoding="UTF-8"?>
<svg version="1.1" xmlns="http://www.w3.org/2000/svg" width="512" height="512">
<path d="M0 0 C1.19638509 -0.00507454 2.39277018 -0.01014909 3.62540936 -0.0153774 C4.9413303 -0.01587516 6.25725123 -0.01637292 7.61304855 -0.01688576 C9.02403025 -0.02090148 10.43501079 -0.02533989 11.84598994 -0.03016531 C15.7282033 -0.04212523 19.61040423 -0.04777796 23.49263239 -0.05234647 C27.67832789 -0.05830506 31.86400857 -0.06991456 36.04969406 -0.08063698 C46.1631312 -0.10515958 56.27657325 -0.11979025 66.39003098 -0.13269705 C69.24802344 -0.13640982 72.10601541 -0.14038301 74.96400738 -0.14444971 C92.72124942 -0.16969291 110.47849226 -0.19174071 128.23574829 -0.20417786 C132.34904356 -0.20710745 136.4623388 -0.21006912 140.575634 -0.21308327 C141.59794651 -0.21382932 142.62025902 -0.21457537 143.6735507 -0.21534403 C160.21684779 -0.22798474 176.76003709 -0.26119009 193.30328384 -0.3028851 C210.29887495 -0.34536781 227.29441099 -0.36888042 244.29005504 -0.37409842 C253.82787987 -0.37750593 263.36553643 -0.38918257 272.90330887 -0.42220116 C281.03044696 -0.45029036 289.15738228 -0.46116238 297.28456512 -0.4500057 C301.42638218 -0.44484113 305.56777523 -0.44756085 309.70952988 -0.47247124 C334.62647132 -0.61412711 353.80962363 0.85464411 372.89887619 18.76592064 C385.78398213 32.15848794 390.49049334 47.95954294 390.44755173 66.0711422 C390.45129198 67.48771542 390.45589499 68.90428657 390.46128237 70.32085449 C390.47348166 74.19984695 390.47325554 78.07875296 390.47089362 81.95776021 C390.47048467 86.14674155 390.48153209 90.33569545 390.49100876 94.52466393 C390.50760321 102.72689252 390.51311761 110.92909237 390.51423351 119.13133635 C390.51518479 125.80104235 390.51929906 132.47073889 390.52563477 139.14044189 C390.54324345 158.06343766 390.5524743 176.98641077 390.55097382 195.90941479 C390.55089391 196.92900264 390.55081399 197.94859049 390.55073166 198.99907494 C390.5506499 200.01991237 390.55056814 201.0407498 390.5504839 202.0925217 C390.54967125 218.63111112 390.56880448 235.1696094 390.59700839 251.70817246 C390.62576052 268.70275149 390.63954738 285.6972861 390.63782084 302.69189006 C390.63715771 312.22784863 390.64261609 321.76371167 390.66417694 331.29964828 C390.68241946 339.41981132 390.68671095 347.53983555 390.67315809 355.66001024 C390.66664372 359.79939321 390.66645549 363.93851011 390.68386459 368.07786751 C390.6996688 371.87484176 390.69665765 375.6713406 390.67929633 379.46830378 C390.6748071 381.47645112 390.68982591 383.48461364 390.70577562 385.49270266 C390.57200318 403.22565553 383.49631481 418.93536475 371.07075119 431.47685814 C357.2851789 444.16331048 341.47035721 448.45099209 323.19494247 448.3977108 C321.78504351 448.40073519 320.37514619 448.40462611 318.96525174 448.40930337 C315.10938648 448.41955517 311.25361449 448.41740876 307.39774168 448.41312277 C303.23197713 448.4106504 299.06623474 448.41967609 294.90047836 448.42716026 C286.74617714 448.43989534 278.59190887 448.44170242 270.43759938 448.43936 C263.80747817 448.43757525 257.17736695 448.43932984 250.54724693 448.44358444 C249.13051274 448.44447723 249.13051274 448.44447723 247.68515766 448.44538805 C245.76626624 448.44659983 243.84737482 448.44781396 241.9284834 448.44903042 C223.94157759 448.45990149 205.95469053 448.45774559 187.96778367 448.45164558 C171.52559566 448.4464775 155.08346691 448.45772974 138.64129063 448.47674379 C121.74499674 448.49613269 104.84873087 448.5043763 87.95242578 448.50062054 C78.47186572 448.49871001 68.99135609 448.50118163 59.51080513 448.51533508 C51.43932843 448.52726329 43.3679332 448.52863767 35.29645535 448.51654492 C31.18153676 448.51066618 27.06676709 448.50952884 22.95185852 448.52154732 C19.17848229 448.53243981 15.40537869 448.52926312 11.63201503 448.51528563 C9.63412057 448.51140677 7.63621384 448.52215827 5.63834828 448.53358251 C-12.59324148 448.42496823 -28.30278206 441.97408968 -41.16362381 429.04717064 C-49.09204823 420.36088212 -53.48061047 411.2583378 -56.81987381 400.13701439 C-57.09201958 399.28312126 -57.09201958 399.28312126 -57.36966324 398.41197777 C-58.00893532 395.18166584 -57.95032836 391.98491653 -57.9333992 388.70635033 C-57.93354523 387.96449486 -57.93369125 387.22263939 -57.93384171 386.45830345 C-57.9331465 384.01263542 -57.92537247 381.56704408 -57.91753006 379.12138939 C-57.91566449 377.42316797 -57.91424124 375.72494601 -57.91324234 374.02672386 C-57.90942813 369.56168184 -57.8996072 365.09667245 -57.88853836 360.6316433 C-57.87830068 356.07354232 -57.87373967 351.51543606 -57.86870193 346.95732689 C-57.85798395 338.01720609 -57.84039601 329.07711806 -57.81987381 320.13701439 C-47.25987381 320.13701439 -36.69987381 320.13701439 -25.81987381 320.13701439 C-25.77088943 324.6293972 -25.72190506 329.12178001 -25.67143631 333.75029564 C-25.63600051 336.61685298 -25.60001246 339.48338255 -25.56206131 342.34990501 C-25.50203517 346.88770375 -25.44392142 351.42546417 -25.39799881 355.9634304 C-25.36079584 359.62699459 -25.31434759 363.29034106 -25.2618103 366.95371628 C-25.24345033 368.34291976 -25.22827656 369.73216956 -25.21652985 371.1214447 C-25.10732786 383.6040745 -24.83700537 395.02691485 -16.81987381 405.13701439 C-6.64484083 415.10181942 5.63967538 415.28784745 19.09632492 415.27072716 C21.05375968 415.27412549 21.05375968 415.27412549 23.05073857 415.27759248 C26.66219637 415.28369544 30.27363096 415.28357866 33.88509274 415.2823981 C37.78433398 415.28219372 41.68356784 415.28771651 45.58280563 415.29245567 C53.21833697 415.30075464 60.85386059 415.30351018 68.48939607 415.30406805 C74.69766027 415.30454359 80.90592193 415.30660022 87.11418533 415.30976868 C104.72511638 415.31857335 122.33604134 415.32318837 139.94697461 415.3224382 C140.89596541 415.32239825 141.84495621 415.32235829 142.82270432 415.32231712 C143.77285712 415.32227624 144.72300992 415.32223536 145.70195523 415.32219324 C161.09735552 415.32178687 176.49273134 415.33135467 191.88812456 415.34545549 C207.70518459 415.35982792 223.52223271 415.36672519 239.33929944 415.36586171 C248.2156625 415.36553003 257.09199991 415.36826438 265.96835709 415.37903976 C273.52642831 415.38815619 281.08446226 415.39031065 288.64253661 415.38353034 C292.49603115 415.38027085 296.34945421 415.38018777 300.20294189 415.38888359 C304.38734601 415.39822874 308.57158545 415.39195765 312.75599289 415.38425255 C314.56842393 415.39196789 314.56842393 415.39196789 316.41746974 415.3998391 C327.86601457 415.35334007 337.97219374 414.43874328 347.18012619 407.13701439 C357.14493122 396.96198141 357.33095925 384.67746519 357.31383896 371.22081566 C357.31610452 369.91585915 357.31837007 368.61090265 357.32070428 367.26640201 C357.32680724 363.65494421 357.32669046 360.04350962 357.32550991 356.43204784 C357.32530552 352.5328066 357.33082831 348.63357274 357.33556747 344.73433495 C357.34386644 337.09880361 357.34662198 329.46327999 357.34717985 321.82774451 C357.34765539 315.61948031 357.34971202 309.41121865 357.35288048 303.20295525 C357.36168515 285.5920242 357.36630017 267.98109924 357.36555 250.37016597 C357.36551005 249.42117517 357.36547009 248.47218437 357.36542892 247.49443626 C357.36538804 246.54428346 357.36534716 245.59413066 357.36530504 244.61518535 C357.36489867 229.21978506 357.37446647 213.82440924 357.38856729 198.42901602 C357.40293972 182.61195598 357.40983699 166.79490787 357.40897352 150.97784114 C357.40864184 142.10147808 357.41137618 133.22514066 357.42215157 124.34878349 C357.43126799 116.79071227 357.43342245 109.23267832 357.42664214 101.67460397 C357.42338265 97.82110943 357.42329957 93.96768637 357.43199539 90.11419868 C357.44134054 85.92979457 357.43506945 81.74555513 357.42736435 77.56114769 C357.43507969 75.74871665 357.43507969 75.74871665 357.4429509 73.89967084 C357.39645187 62.45112601 356.48185508 52.34494684 349.18012619 43.13701439 C339.00509321 33.17220936 326.720577 32.98618133 313.26392746 33.00330162 C311.95897095 33.00103606 310.65401445 32.99877051 309.30951381 32.9964363 C305.69805601 32.99033334 302.08662142 32.99045012 298.47515965 32.99163067 C294.5759184 32.99183506 290.67668454 32.98631227 286.77744675 32.9815731 C279.14191541 32.97327414 271.50639179 32.9705186 263.87085631 32.96996073 C257.66259211 32.96948519 251.45433045 32.96742856 245.24606705 32.9642601 C227.635136 32.95545543 210.02421104 32.95084041 192.41327778 32.95159058 C190.98979157 32.95165051 190.98979157 32.95165051 189.53754807 32.95171165 C188.58739526 32.95175254 187.63724246 32.95179342 186.65829715 32.95183554 C171.26289686 32.95224191 155.86752104 32.94267411 140.47212783 32.92857329 C124.65506779 32.91420086 108.83801967 32.90730359 93.02095294 32.90816706 C84.14458988 32.90849874 75.26825247 32.9057644 66.39189529 32.89498901 C58.83382407 32.88587259 51.27579012 32.88371813 43.71771577 32.89049844 C39.86422123 32.89375793 36.01079817 32.89384101 32.15731049 32.88514519 C27.97290637 32.87580004 23.78866693 32.88207113 19.60425949 32.88977623 C18.39597213 32.88463267 17.18768477 32.8794891 15.94278264 32.87418967 C4.49423781 32.92068871 -5.61194136 33.8352855 -14.81987381 41.13701439 C-22.99391366 49.48350234 -24.86747653 59.42835323 -25.02519608 70.80669212 C-25.0451413 72.08749153 -25.06508652 73.36829094 -25.08563614 74.68790245 C-25.10261394 76.06546983 -25.11949298 77.44303842 -25.13628006 78.82060814 C-25.15688069 80.24550499 -25.17787791 81.67039616 -25.19925308 83.0952816 C-25.25415302 86.82535225 -25.30370219 90.55547508 -25.35210037 94.28563499 C-25.41143895 98.7720383 -25.47748844 103.25834731 -25.54240036 107.74467278 C-25.6400056 114.54206185 -25.72913752 121.33951453 -25.81987381 128.13701439 C-36.37987381 128.13701439 -46.93987381 128.13701439 -57.81987381 128.13701439 C-57.91067491 118.45237867 -57.98387609 108.76803121 -58.0271225 99.08306408 C-58.04789112 94.58469042 -58.07600952 90.0866261 -58.12163162 85.5884304 C-58.16547618 81.23767356 -58.18909129 76.887212 -58.19938278 72.53625107 C-58.20670557 70.88625193 -58.22100275 69.23626675 -58.24279404 67.58639526 C-58.49585901 47.60993921 -52.7673271 31.45714053 -38.69096756 16.94170189 C-28.54347989 7.3932609 -14.13791735 0.03184238 0 0 Z " fill="#34160C" transform="translate(121.81987380981445,31.862985610961914)"/>
<path d="M0 0 C1.69216818 1.51274651 3.3424685 3.07332179 4.95329285 4.67240906 C5.41366056 5.12683453 5.87402828 5.58126 6.34834653 6.04945594 C7.87522572 7.55912214 9.39500064 9.07573345 10.91479492 10.5925293 C12.01386699 11.68233388 13.11332912 12.77174521 14.21315002 13.86079407 C17.18904048 16.81054688 20.15832832 19.76685712 23.12562728 22.72525001 C24.98180254 24.57554832 26.8391394 26.42467287 28.69683266 28.27344704 C34.51543731 34.06473616 40.33004635 39.85999286 46.13887614 45.66108674 C52.83272735 52.34597274 59.5394561 59.01757293 66.25771636 65.67792577 C71.45912846 70.83606121 76.6489113 76.00571119 81.83006555 81.18419391 C84.92098266 84.27301881 88.0165278 87.35683097 91.12425804 90.42874718 C94.04733139 93.31878212 96.95564807 96.22290129 99.85347557 99.13824272 C100.91610091 100.2024045 101.9838251 101.2615042 103.05708694 102.31493759 C109.38835153 108.53607894 114.90250904 114.13083567 115.0350523 123.46976757 C114.704883 130.97576354 110.48330822 135.76127444 105.32086182 140.95329285 C104.86573078 141.41366056 104.41059974 141.87402828 103.94167686 142.34834653 C102.42967811 143.87523441 100.91072658 145.39499949 99.39160156 146.91479492 C98.30016659 148.01385861 97.20913295 149.11332097 96.11846924 150.21315002 C93.16454999 153.18894538 90.20414747 156.15820593 87.24181843 159.12562728 C85.38940568 160.98169048 83.53829614 162.83904352 81.68761444 164.69683266 C75.22583579 171.18307776 68.75838126 177.66360705 62.28613281 184.1394043 C56.26102626 190.16814826 50.24918694 196.20990518 44.24322534 202.25771636 C39.07827086 207.4573897 33.9037117 212.64737409 28.7217176 217.83006555 C25.63032906 220.92224606 22.54302616 224.01825268 19.46552277 227.12425804 C16.57087184 230.04511806 13.66443377 232.95371661 10.7486496 235.85347557 C9.68333768 236.91697554 8.6222505 237.98472773 7.56585693 239.05708694 C1.47615837 245.2331405 -3.52568074 250.15997756 -12.46875 251.3203125 C-18.92914016 250.69912114 -22.83128739 247.91094681 -27 243 C-29.57508933 238.26183563 -29.48700077 233.12758887 -28 228 C-24.76891218 222.48775728 -20.53961718 218.26935823 -16.01855469 213.79150391 C-15.2181778 212.99083496 -14.4178009 212.19016602 -13.59317017 211.36523438 C-10.95745335 208.73090625 -8.31473237 206.10372525 -5.671875 203.4765625 C-3.83869543 201.64711468 -2.00595813 199.81722359 -0.17364502 197.98690796 C4.15037253 193.66973563 8.47881248 189.35704432 12.80944896 185.04651296 C17.74207085 180.13629207 22.66897448 175.22035041 27.59541941 170.30393338 C37.72395447 160.19626982 47.85960724 150.09576673 58 140 C56.89570737 139.99910437 56.89570737 139.99910437 55.76910579 139.99819064 C12.15428596 139.96231127 -31.46046457 139.90569476 -75.07522035 139.82207905 C-80.30991225 139.81206137 -85.54460445 139.80221727 -90.77929688 139.79248047 C-92.34252291 139.78956841 -92.34252291 139.78956841 -93.93732928 139.78659752 C-110.82060654 139.75556061 -127.7038702 139.73859215 -144.58717062 139.72680578 C-161.9058085 139.71440298 -179.22437491 139.68692129 -196.54296768 139.64538693 C-207.23294463 139.62022659 -217.92280308 139.60688457 -228.61281006 139.60857043 C-235.93934566 139.60860014 -243.26576037 139.5940079 -250.59224887 139.56783572 C-254.82182427 139.55316089 -259.05115177 139.54501143 -263.28074837 139.55419731 C-267.15233804 139.56246356 -271.02342887 139.55238692 -274.89494441 139.52766338 C-276.2961076 139.5219636 -277.69731781 139.52302018 -279.09846701 139.53148755 C-292.06860774 139.60315751 -292.06860774 139.60315751 -297 135 C-300.62833663 131.18069828 -301.31000458 128.11720994 -301.5 123 C-301.25786196 116.47841558 -299.47711001 113.31223293 -294.7247448 108.87618637 C-289.52433248 105.53598072 -282.97648806 106.44507694 -277.02908325 106.48101807 C-275.58434168 106.47514101 -274.13960634 106.46751302 -272.69488227 106.458287 C-268.7291793 106.43802231 -264.76383395 106.44258171 -260.79810286 106.45119452 C-256.52000866 106.45613681 -252.24200458 106.43805765 -247.96394348 106.42277527 C-240.55335557 106.39945315 -233.14286554 106.39071517 -225.73224258 106.39188385 C-215.01775108 106.39355248 -204.30339014 106.37322451 -193.58893345 106.34752855 C-176.20545419 106.30643591 -158.82199838 106.28313168 -141.43847656 106.27099609 C-124.55206038 106.25916949 -107.66568839 106.23897639 -90.77929688 106.20751953 C-89.73841176 106.20558343 -88.69752664 106.20364733 -87.62509955 106.20165256 C-82.40328223 106.19188805 -77.18146523 106.18195892 -71.95964837 106.17194796 C-28.63978715 106.08911058 14.68007559 106.03513447 58 106 C57.3547778 105.36169125 57.3547778 105.36169125 56.69652081 104.71048737 C46.21618535 94.34072042 35.74981033 83.95701039 25.29871655 73.5577774 C20.24423613 68.5290451 15.18518503 63.50507955 10.11499023 58.4921875 C5.69424209 54.12137832 1.28244474 49.7417604 -3.11896628 45.35147619 C-5.44841194 43.02853159 -7.78328579 40.71151465 -10.12635231 38.40229797 C-12.74552695 35.81946465 -15.34858685 33.22135581 -17.94848633 30.61914062 C-19.11050064 29.48409088 -19.11050064 29.48409088 -20.29598999 28.32611084 C-25.34672661 23.22654217 -28.3736696 18.82732699 -29.3203125 11.53125 C-28.78451623 5.95896877 -26.86893142 2.60110198 -22.95703125 -1.3984375 C-15.30682031 -7.65908917 -7.19641232 -5.09242825 0 0 Z " fill="#34160C" transform="translate(301,133)"/>
</svg>
