<?xml version="1.0" encoding="UTF-8"?>
<svg version="1.1" xmlns="http://www.w3.org/2000/svg" width="512" height="512">
<path d="M0 0 C3.47166911 2.86745531 6.75311242 5.88175297 10 9 C10.90621094 9.84304687 11.81242187 10.68609375 12.74609375 11.5546875 C19.57382225 18.08885208 24.96425487 25.01514447 30 33 C30.68964844 34.07894531 31.37929688 35.15789062 32.08984375 36.26953125 C50.11790139 65.99333453 53.99974475 102.1104279 45.87304688 135.63305664 C40.90558412 154.21093161 31.5745233 171.50030743 19 186 C18.31421875 186.81855469 17.6284375 187.63710937 16.921875 188.48046875 C11.19027637 195.12953551 4.84829056 200.54814857 -2 206 C-3.66687445 207.33307356 -5.33357235 208.66636796 -7 210 C-6.29504395 210.30180176 -5.59008789 210.60360352 -4.86376953 210.91455078 C-1.6142973 212.31067947 1.6303255 213.71775915 4.875 215.125 C5.98359375 215.599375 7.0921875 216.07375 8.234375 216.5625 C29.38451598 225.76903195 29.38451598 225.76903195 34 235 C34.50282832 240.50638223 34.71321529 245.40239776 32.4375 250.5 C28.26868871 254.77570389 24.5026539 257.17095979 18.5625 257.75 C11.38953561 257.45700448 5.264348 253.39988129 -0.92089844 250.09033203 C-42.48025523 228.29558245 -90.75972031 226.99983625 -135.01171875 240.61914062 C-153.31019627 246.46500312 -170.99167129 256.04961826 -186 268 C-186.54269531 268.43135254 -187.08539063 268.86270508 -187.64453125 269.30712891 C-215.41561007 291.57439615 -234.80136972 320.23216757 -246 354 C-246.2259082 354.66725098 -246.45181641 355.33450195 -246.68457031 356.02197266 C-249.59091705 364.72538735 -252.49101546 373.83344941 -248.3125 382.5 C-244.03702443 387.12213575 -239.94676295 388.7819921 -233.71878392 389.12600785 C-232.93411667 389.12649761 -232.14944942 389.12698736 -231.34100437 389.12749195 C-230.42906647 389.1304996 -229.51712857 389.13350725 -228.57755619 389.13660604 C-227.08807175 389.13398048 -227.08807175 389.13398048 -225.5684967 389.13130188 C-223.97585319 389.13447545 -223.97585319 389.13447545 -222.35103506 389.13771313 C-218.78747984 389.14371241 -215.22396005 389.14271304 -211.66040039 389.1418457 C-209.10785359 389.14487718 -206.55530734 389.14839861 -204.00276184 389.15237427 C-198.50310734 389.16026348 -193.0034603 389.16542858 -187.50380135 389.16866493 C-178.81065549 389.17416631 -170.11754875 389.19106802 -161.42442322 389.21000671 C-158.44937617 389.21636309 -155.47432902 389.22267155 -152.49928188 389.22898388 C-151.75583018 389.23056764 -151.01237847 389.2321514 -150.24639793 389.23378316 C-141.78707083 389.2517132 -133.32774097 389.26794349 -124.8684082 389.28295898 C-124.09524973 389.28433486 -123.32209126 389.28571073 -122.52550375 389.28712829 C-109.99128212 389.30906699 -97.45707059 389.31981712 -84.92283315 389.32732973 C-72.0517593 389.33539982 -59.18077205 389.35868496 -46.30974764 389.3952834 C-38.37175431 389.41730898 -30.43393905 389.42697293 -22.49591672 389.42078307 C-16.41436781 389.41723427 -10.33306061 389.43446488 -4.25155449 389.45946121 C-1.75622886 389.46639424 0.73912647 389.46647701 3.23445129 389.45926094 C6.63715116 389.45041347 10.03889132 389.46600106 13.44151306 389.48774719 C14.43227197 389.47930466 15.42303088 389.47086212 16.44381279 389.46216375 C23.48385937 389.54553845 27.07878983 391.31564471 32.3125 396.125 C34.76870815 400.30965092 35.18079382 404.18636466 35 409 C33.35395187 414.90640798 30.80402955 417.52474458 26 421 C23.63314445 422.18342777 22.21118821 422.12841169 19.57073402 422.13422108 C18.16508625 422.14090784 18.16508625 422.14090784 16.73104155 422.14772969 C15.17622417 422.14745315 15.17622417 422.14745315 13.58999634 422.14717102 C12.49419514 422.15084771 11.39839394 422.1545244 10.26938665 422.1583125 C6.57232734 422.16938564 2.8752961 422.17319938 -0.82177734 422.17700195 C-3.46266855 422.18326405 -6.10355671 422.18989763 -8.7444458 422.19691467 C-16.69034471 422.21669451 -24.63624493 422.22674967 -32.58216232 422.23564246 C-36.32532041 422.24002506 -40.06847709 422.24539215 -43.81163406 422.25063133 C-56.25888716 422.26764924 -68.70613938 422.28214096 -81.15340233 422.28938007 C-84.38498307 422.29128995 -87.61656381 422.29321028 -90.84814453 422.29516602 C-91.65133179 422.29564976 -92.45451905 422.2961335 -93.28204532 422.2966319 C-106.27804029 422.30492288 -119.27394293 422.33024147 -132.26989762 422.36274669 C-145.61772721 422.39585909 -158.96550997 422.41383282 -172.31338084 422.41702431 C-179.80546895 422.41918613 -187.29742265 422.42788593 -194.78947067 422.45348549 C-201.17397633 422.47525014 -207.55831495 422.48321494 -213.9428535 422.47351871 C-217.19708125 422.4689898 -220.45089475 422.47298255 -223.70508957 422.49028015 C-227.24373363 422.50803211 -230.78151436 422.50087546 -234.32015991 422.48774719 C-235.84151647 422.50420106 -235.84151647 422.50420106 -237.3936075 422.52098733 C-251.16318481 422.39831477 -261.92868311 416.89248232 -271.8125 407.5625 C-281.3925142 397.3977901 -284.64752696 385.58232956 -284.54272461 371.84545898 C-284.20768345 362.46168207 -281.86836491 353.88824637 -279 345 C-278.79133301 344.31437988 -278.58266602 343.62875977 -278.36767578 342.92236328 C-272.18928715 322.66688233 -262.32667636 303.18667274 -250 286 C-249.58008789 285.41331543 -249.16017578 284.82663086 -248.72753906 284.22216797 C-242.73085182 275.94805032 -236.05759437 268.36949216 -229 261 C-228.52836426 260.50113281 -228.05672852 260.00226563 -227.57080078 259.48828125 C-206.262752 237.0329315 -179.60043933 221.35139388 -151 210 C-151.67804688 209.45472656 -152.35609375 208.90945313 -153.0546875 208.34765625 C-181.98505609 184.90684513 -202.42558101 156.53527873 -207.375 118.75 C-210.69241473 84.78924918 -202.88503569 51.321152 -182 24 C-179.74037176 21.30188365 -177.43250533 18.69839121 -175.0078125 16.1484375 C-172.9397491 14.00150622 -172.9397491 14.00150622 -171.05859375 11.49609375 C-167.32910626 6.97400171 -162.59913927 3.59722704 -158 0 C-157.14148438 -0.68578125 -156.28296875 -1.3715625 -155.3984375 -2.078125 C-110.34721119 -36.64915667 -44.35618811 -33.92618005 0 0 Z M-142 30 C-143.44439453 31.30710937 -143.44439453 31.30710937 -144.91796875 32.640625 C-163.27397847 49.77484936 -173.80383022 72.85627165 -175.16015625 97.96484375 C-175.88807786 125.5942161 -165.73644837 149.96765894 -147 170 C-129.31195951 188.18805577 -104.36276644 197.74456133 -79.25 198.3125 C-53.14859343 198.15528155 -29.45254976 187.68700837 -10.68945312 169.70996094 C-6.23370966 165.20013041 -2.54281999 160.24311498 1 155 C1.64453125 154.04738281 2.2890625 153.09476563 2.953125 152.11328125 C16.28049622 130.87640494 19.62965352 105.16236992 14.55517578 80.87060547 C10.83294353 64.6913522 3.28940132 50.19332272 -8 38 C-9.11955078 36.74316406 -9.11955078 36.74316406 -10.26171875 35.4609375 C-27.22930865 17.34347787 -51.68973319 7.09743784 -76.3515625 5.96875 C-100.43928943 6.17506886 -124.05013273 13.43089175 -142 30 Z " fill="#34160C" transform="translate(316,58)"/>
<path d="M0 0 C4.64033987 2.15444351 8.03598049 5.2220809 10 10 C10.54851096 14.13732054 10.46541986 18.23134214 10.390625 22.3984375 C10.38496521 23.58853424 10.37930542 24.77863098 10.37347412 26.00479126 C10.35113451 29.79527486 10.30093963 33.58480345 10.25 37.375 C10.22993201 39.94920507 10.21168177 42.523425 10.1953125 45.09765625 C10.15127745 51.39876178 10.08438805 57.69931265 10 64 C10.66319244 63.99111755 11.32638489 63.98223511 12.00967407 63.9730835 C18.92026134 63.88450044 25.83068696 63.82421985 32.74169922 63.78027344 C35.31989088 63.76017437 37.89803704 63.73289059 40.47607422 63.69824219 C44.18468461 63.64965153 47.89269156 63.62701342 51.6015625 63.609375 C52.75177887 63.58872986 53.90199524 63.56808472 55.08706665 63.54681396 C61.38852193 63.54505226 65.23604813 63.72116563 70 68 C73.62833663 71.81930172 74.31000458 74.88279006 74.5 80 C74.31000458 85.11720994 73.62833663 88.18069828 70 92 C64.37931362 97.04832683 58.89755008 96.5215801 51.6015625 96.390625 C50.41146576 96.38496521 49.22136902 96.37930542 47.99520874 96.37347412 C44.20472514 96.35113451 40.41519655 96.30093963 36.625 96.25 C34.05079493 96.22993201 31.476575 96.21168177 28.90234375 96.1953125 C22.60123822 96.15127745 16.30068735 96.08438805 10 96 C10.00888245 96.66319244 10.01776489 97.32638489 10.0269165 98.00967407 C10.11549956 104.92026134 10.17578015 111.83068696 10.21972656 118.74169922 C10.23982563 121.31989088 10.26710941 123.89803704 10.30175781 126.47607422 C10.35034847 130.18468461 10.37298658 133.89269156 10.390625 137.6015625 C10.41127014 138.75177887 10.43191528 139.90199524 10.45318604 141.08706665 C10.45494774 147.38852193 10.27883437 151.23604813 6 156 C2.18069828 159.62833663 -0.88279006 160.31000458 -6 160.5 C-11.11720994 160.31000458 -14.18069828 159.62833663 -18 156 C-23.04832683 150.37931362 -22.5215801 144.89755008 -22.390625 137.6015625 C-22.38496521 136.41146576 -22.37930542 135.22136902 -22.37347412 133.99520874 C-22.35113451 130.20472514 -22.30093963 126.41519655 -22.25 122.625 C-22.22993201 120.05079493 -22.21168177 117.476575 -22.1953125 114.90234375 C-22.15127745 108.60123822 -22.08438805 102.30068735 -22 96 C-22.99478867 96.01332367 -22.99478867 96.01332367 -24.00967407 96.0269165 C-30.92026134 96.11549956 -37.83068696 96.17578015 -44.74169922 96.21972656 C-47.31989088 96.23982563 -49.89803704 96.26710941 -52.47607422 96.30175781 C-56.18468461 96.35034847 -59.89269156 96.37298658 -63.6015625 96.390625 C-65.32688705 96.42159271 -65.32688705 96.42159271 -67.08706665 96.45318604 C-73.38852193 96.45494774 -77.23604813 96.27883437 -82 92 C-85.62833663 88.18069828 -86.31000458 85.11720994 -86.5 80 C-86.31000458 74.88279006 -85.62833663 71.81930172 -82 68 C-76.37931362 62.95167317 -70.89755008 63.4784199 -63.6015625 63.609375 C-62.41146576 63.61503479 -61.22136902 63.62069458 -59.99520874 63.62652588 C-56.20472514 63.64886549 -52.41519655 63.69906037 -48.625 63.75 C-46.05079493 63.77006799 -43.476575 63.78831823 -40.90234375 63.8046875 C-34.60123822 63.84872255 -28.30068735 63.91561195 -22 64 C-22.00888245 63.33680756 -22.01776489 62.67361511 -22.0269165 61.99032593 C-22.11549956 55.07973866 -22.17578015 48.16931304 -22.21972656 41.25830078 C-22.23982563 38.68010912 -22.26710941 36.10196296 -22.30175781 33.52392578 C-22.35034847 29.81531539 -22.37298658 26.10730844 -22.390625 22.3984375 C-22.41127014 21.24822113 -22.43191528 20.09800476 -22.45318604 18.91293335 C-22.45494774 12.61147807 -22.27883437 8.76395187 -18 4 C-12.72867143 -1.00776214 -6.89190982 -0.92775709 0 0 Z " fill="#34170C" transform="translate(406,304)"/>
</svg>
