<?xml version="1.0" encoding="UTF-8"?>
<svg version="1.1" xmlns="http://www.w3.org/2000/svg" width="512" height="512">
<path d="M0 0 C1.30691299 -0.00843994 2.61382599 -0.01687988 3.96034241 -0.02557558 C5.4193635 -0.01977974 6.87838349 -0.01369868 8.33740234 -0.00736332 C9.88053272 -0.01153339 11.42366004 -0.0170091 12.96678162 -0.02368313 C17.21846098 -0.03819934 21.46994752 -0.03387388 25.72163773 -0.02651632 C30.30248103 -0.02180218 34.88328156 -0.03427885 39.46411133 -0.04453373 C48.44240488 -0.06176122 57.42062857 -0.06255363 66.39893436 -0.05732083 C73.69337233 -0.05328548 80.98778959 -0.0547151 88.28222656 -0.06006908 C89.31893903 -0.06081751 90.35565149 -0.06156593 91.42377949 -0.06233703 C93.5295957 -0.06386844 95.6354119 -0.06540679 97.7412281 -0.066952 C117.50474561 -0.08069115 137.26822357 -0.07522925 157.03174019 -0.06376678 C175.12936964 -0.05383131 193.22689689 -0.066778 211.32451057 -0.09070098 C229.88960443 -0.11505778 248.45465061 -0.12470838 267.01976013 -0.11804825 C277.44972709 -0.11454862 287.87961539 -0.11683707 298.30957031 -0.13429928 C307.18771821 -0.14897853 316.06573208 -0.1497129 324.94387722 -0.13222837 C329.47690017 -0.12368084 334.00968328 -0.12165968 338.54269409 -0.13687992 C342.68783671 -0.150626 346.83253173 -0.14609537 350.97764778 -0.12664068 C352.48163786 -0.12284913 353.98566294 -0.12589238 355.48962212 -0.13625234 C357.52527325 -0.1492838 359.56104424 -0.13554116 361.59667969 -0.12025452 C362.73003754 -0.12014718 363.86339539 -0.12003984 365.03109741 -0.11992925 C367.79833984 0.38031673 367.79833984 0.38031673 369.66217381 2.23610204 C371.18184449 5.10408093 371.17879192 7.24903021 371.1860199 10.49103451 C371.20087685 12.37117496 371.20087685 12.37117496 371.21603394 14.28929806 C371.21179595 15.67575839 371.20723809 17.06221777 371.20239258 18.44867611 C371.20809562 19.91074299 371.21505963 21.37280541 371.22319031 22.8348608 C371.24114303 26.80383833 371.23994957 30.77259504 371.23424792 34.74160099 C371.23115951 38.05438345 371.23724454 41.36712329 371.24328667 44.67989969 C371.25733684 52.49397446 371.25576617 60.3079399 371.24438477 68.12201595 C371.23289899 76.18600177 371.24698565 84.24965519 371.27378124 92.3135972 C371.29592318 99.23599991 371.30257916 106.15829816 371.29670483 113.08073378 C371.2933309 117.21572517 371.29577922 121.3505034 371.31295586 125.48546505 C371.32839941 129.37289587 371.32449881 133.25983331 371.30565071 137.14724445 C371.30195777 138.57429248 371.30509387 140.00137686 371.3155365 141.42839146 C371.32869739 143.37542344 371.31482119 145.32258242 371.29954529 147.26959896 C371.299336 148.35949375 371.29912672 149.44938854 371.29891109 150.57231045 C370.79833984 153.38031673 370.79833984 153.38031673 369.17979527 155.73385525 C366.02071831 157.91793919 364.02003525 157.86318662 360.19384766 157.8344183 C359.53977432 157.8350024 358.88570099 157.83558651 358.21180725 157.83618832 C356.0578129 157.83340972 353.90521628 157.80233221 351.75146484 157.77094173 C350.25503292 157.76347845 348.7585912 157.75778593 347.262146 157.75379086 C343.32949695 157.73854112 339.39744177 157.69926585 335.46502686 157.65497494 C331.44991082 157.61400747 327.43469853 157.59577674 323.41943359 157.57562923 C315.54546359 157.53277022 307.67197566 157.46452776 299.79833984 157.38031673 C299.80110522 158.21207896 299.8038706 159.04384119 299.80671978 159.90080833 C299.87302942 180.15774655 299.92264467 200.41466601 299.95377636 220.67168999 C299.96923232 230.46791582 299.99029755 240.26406911 300.0246582 250.06024837 C300.05459946 258.60054895 300.07392408 267.14079698 300.08060533 275.68114859 C300.08450958 280.20143551 300.09365861 284.72157214 300.11553001 289.2418108 C300.13596988 293.50090034 300.14215855 297.75977838 300.13766289 302.01891232 C300.13848474 303.57771169 300.14440562 305.13651851 300.15595627 306.69527531 C300.22360941 316.30033013 300.02883617 324.48842229 294.61083984 332.69281673 C288.72240742 338.31954105 282.95701573 339.97926421 274.95568848 339.8882513 C273.6737085 339.89761125 273.6737085 339.89761125 272.36582994 339.90716028 C269.52078148 339.92303153 266.67659679 339.91050918 263.83154297 339.89789486 C261.78425092 339.90331858 259.73696278 339.91044265 257.68968201 339.91913509 C252.14217716 339.93734146 246.59497049 339.93031189 241.04746056 339.91761875 C235.23626285 339.90747723 229.42509033 339.91688764 223.6138916 339.92316341 C213.85582912 339.93043644 204.09788782 339.92086108 194.33984375 339.90180111 C183.06533424 339.88003311 171.79111408 339.88708472 160.51661158 339.90910673 C150.82890681 339.92727047 141.14128905 339.92981426 131.45357275 339.91935205 C125.67086896 339.91312252 119.88830109 339.91226675 114.10560608 339.92549801 C108.66851854 339.93706996 103.23180334 339.92900587 97.79475594 339.90592098 C95.80176982 339.90064113 93.80875226 339.90213525 91.81577873 339.91097164 C89.09042945 339.92193929 86.36626544 339.90814897 83.64099121 339.8882513 C82.46431845 339.90163563 82.46431845 339.90163563 81.26387453 339.91529036 C74.83259723 339.82451585 69.66877688 337.85731549 64.77490234 333.63422298 C64.32888672 333.07605892 63.88287109 332.51789486 63.42333984 331.94281673 C62.96185547 331.3872308 62.50037109 330.83164486 62.02490234 330.25922298 C59.06523343 325.72546264 58.54971691 321.84438825 58.55783081 316.4770422 C58.55612196 315.79490038 58.55441311 315.11275857 58.55265248 314.40994579 C58.54936638 312.13132544 58.56034655 309.85300161 58.57128906 307.57440853 C58.57185337 305.93822391 58.57153624 304.30203878 58.57040405 302.66585445 C58.56983029 298.22823111 58.58158842 293.79071592 58.59555197 289.3531177 C58.6080554 284.71398101 58.60922952 280.07484183 58.61160278 275.43569088 C58.61781868 266.6526736 58.63423101 257.86970611 58.65430176 249.08671075 C58.67665731 239.08679205 58.68765333 229.08687097 58.69769263 219.08693349 C58.71859713 198.51803345 58.75377527 177.94917823 58.79833984 157.38031673 C58.00542542 157.38919918 57.21251099 157.39808163 56.39556885 157.40723324 C48.92104801 157.48740008 41.44673577 157.54829135 33.97189713 157.58756542 C30.12902733 157.60843557 26.28651292 157.6367418 22.44384766 157.68207455 C18.73502869 157.72555419 15.02655142 157.74945815 11.31749725 157.75982571 C9.90287649 157.76721341 8.48827432 157.78164017 7.07379913 157.80323696 C5.09186561 157.83229289 3.10958784 157.83395082 1.12744141 157.8344183 C-0.00062927 157.84330074 -1.12869995 157.85218319 -2.29095459 157.8613348 C-5.20166016 157.38031673 -5.20166016 157.38031673 -7.56590366 155.73664856 C-9.66853755 152.70777282 -9.70216565 150.89908843 -9.7028656 147.22490597 C-9.71269974 145.96161968 -9.72253387 144.6983334 -9.73266602 143.39676571 C-9.72329431 141.99927156 -9.71351501 140.60178009 -9.70336914 139.20429134 C-9.70715263 137.73074992 -9.71265293 136.25721205 -9.71974182 134.78368282 C-9.73370876 130.7836947 -9.72251878 126.78413611 -9.70603061 122.78417182 C-9.69218718 118.60019795 -9.69863928 114.4162492 -9.7021637 110.2322607 C-9.70486609 103.20691657 -9.69138679 96.18174327 -9.66821289 89.15643978 C-9.64159256 81.02998978 -9.63985919 72.90382523 -9.65160125 64.77734655 C-9.66237307 56.96369228 -9.65619735 49.15014145 -9.64204597 41.3364954 C-9.63628201 38.00918354 -9.63637203 34.68194727 -9.64111137 31.35463428 C-9.64587698 27.43852611 -9.63579711 23.52273132 -9.61415672 19.60668278 C-9.60858333 18.16793659 -9.60812863 16.72916031 -9.61310959 15.29041195 C-9.61904684 13.3298489 -9.60474573 11.36925537 -9.58934021 9.40874386 C-9.58691031 8.31055293 -9.58448042 7.212362 -9.58197689 6.08089256 C-9.20166016 3.38031673 -9.20166016 3.38031673 -8.06549412 1.73530054 C-5.36391901 -0.22871052 -3.32077688 0.00301538 0 0 Z M5.79833984 14.38031673 C5.79833984 56.62031673 5.79833984 98.86031673 5.79833984 142.38031673 C23.28833984 142.38031673 40.77833984 142.38031673 58.79833984 142.38031673 C58.79833984 136.44031673 58.79833984 130.50031673 58.79833984 124.38031673 C55.49382812 124.30684017 55.49382812 124.30684017 52.12255859 124.23187923 C49.98780555 124.17786138 47.85316427 124.12055718 45.71850586 124.06293392 C44.23551772 124.02466326 42.75243736 123.98980696 41.26928711 123.95844173 C39.13670912 123.91274873 37.00476494 123.85476336 34.87255859 123.79437923 C32.94802856 123.74724789 32.94802856 123.74724789 30.98461914 123.69916439 C27.79833984 123.38031673 27.79833984 123.38031673 24.79833984 121.38031673 C24.49082328 118.64587997 24.37854397 116.1361238 24.39428711 113.398139 C24.38742386 112.57361233 24.38056061 111.74908566 24.37348938 110.89957333 C24.35513913 108.1651163 24.35907059 105.43122856 24.36474609 102.69672298 C24.36018807 100.80104541 24.35488364 98.9053695 24.34886169 97.00969601 C24.33991431 93.03250074 24.34237197 89.05550609 24.35229492 85.07831478 C24.36378386 79.97560149 24.3435826 74.87358027 24.31437778 69.77095795 C24.2960513 65.85477437 24.29630118 61.93875769 24.3020153 58.022542 C24.30216897 56.14102807 24.29608741 54.25950314 24.28372383 52.37802982 C24.26888319 49.74887191 24.27943924 47.12100585 24.29663086 44.491889 C24.28696289 43.71100414 24.27729492 42.93011929 24.26733398 42.12557125 C24.33992098 36.83746155 24.33992098 36.83746155 26.50287151 34.68052232 C29.2390858 33.13066818 30.89401403 33.00445234 34.02703857 33.00279331 C35.09148823 32.99497007 36.15593788 32.98714683 37.25264359 32.97908652 C38.42111202 32.98577868 39.58958046 32.99247085 40.79345703 32.99936581 C42.03545238 32.99468583 43.27744774 32.99000586 44.55707932 32.98518407 C48.00657059 32.97527445 51.45557323 32.97885965 54.90503502 32.98814273 C58.62424798 32.99491897 62.34341765 32.98445909 66.06262207 32.97620296 C73.34932907 32.96284817 80.63594349 32.96575112 87.92265415 32.97444089 C93.84358545 32.98121017 99.76449075 32.98213743 105.6854248 32.97886944 C106.52743777 32.97840974 107.36945074 32.97795004 108.23697925 32.97747641 C109.94739819 32.97651726 111.65781713 32.97554462 113.36823606 32.97455864 C129.41489067 32.96599963 145.4614939 32.97584688 161.50814009 32.99195974 C175.28328449 33.00536338 189.05835306 33.00303543 202.83349609 32.98920345 C218.82189305 32.97315665 234.81024495 32.96682365 250.79864883 32.97604024 C252.50285084 32.97699591 254.20705286 32.97793902 255.91125488 32.97886944 C256.7498016 32.97933226 257.58834833 32.97979509 258.45230556 32.98027194 C264.36758806 32.98286454 270.28284203 32.97848504 276.19812012 32.97143078 C283.4047844 32.96302557 290.61135063 32.96527523 297.81800365 32.98127301 C301.49646592 32.98916898 305.17476457 32.99222491 308.85322571 32.98232555 C312.83665098 32.97176745 316.81980708 32.98435587 320.80322266 32.99936581 C321.97169109 32.99267364 323.14015953 32.98598148 324.3440361 32.97908652 C325.40848576 32.98690976 326.47293541 32.994733 327.56964111 33.00279331 C328.48943378 33.00328037 329.40922646 33.00376743 330.35689163 33.00426924 C333.31475903 33.45985893 334.68554508 34.27685624 336.79833984 36.38031673 C337.1956295 39.17807196 337.33519665 41.5850287 337.30004883 44.38422298 C337.30815331 45.60660168 337.30815331 45.60660168 337.31642151 46.85367489 C337.32894035 49.55042369 337.31239735 52.24611144 337.29443359 54.94281673 C337.29458851 56.81464348 337.29607624 58.68647055 337.29884338 60.55829525 C337.30022879 64.48251164 337.28764574 68.40636316 337.26489258 72.33051205 C337.23650751 77.3647416 337.23924337 82.3983647 337.25198269 87.43263912 C337.2589323 91.29821625 337.25115881 95.16365281 337.23872566 99.029212 C337.23420417 100.8855908 337.23388043 102.74198465 337.23779106 104.59836483 C337.24069627 107.19136224 337.22422991 109.78351918 337.20239258 112.37641048 C337.20914505 113.53135509 337.20914505 113.53135509 337.21603394 114.70963192 C337.14384498 119.85945303 337.14384498 119.85945303 335.48944092 122.35353756 C332.58850604 124.11488676 329.36671269 123.86308927 326.06787109 123.89203548 C324.94224007 123.91896229 324.94224007 123.91896229 323.79386902 123.94643307 C321.39958294 124.0005686 319.00549653 124.03444089 316.61083984 124.06781673 C314.98646308 124.10098709 313.36211267 124.1354765 311.73779297 124.17133236 C307.75794606 124.25877917 303.77901075 124.31881463 299.79833984 124.38031673 C299.79833984 130.32031673 299.79833984 136.26031673 299.79833984 142.38031673 C318.27833984 142.38031673 336.75833984 142.38031673 355.79833984 142.38031673 C355.79833984 100.14031673 355.79833984 57.90031673 355.79833984 14.38031673 C240.29833984 14.38031673 124.79833984 14.38031673 5.79833984 14.38031673 Z M38.79833984 47.38031673 C38.79833984 67.84031673 38.79833984 88.30031673 38.79833984 109.38031673 C45.39833984 109.38031673 51.99833984 109.38031673 58.79833984 109.38031673 C58.79833984 88.92031673 58.79833984 68.46031673 58.79833984 47.38031673 C52.19833984 47.38031673 45.59833984 47.38031673 38.79833984 47.38031673 Z M102.79833984 47.38031673 C102.79833984 118.00031673 102.79833984 188.62031673 102.79833984 261.38031673 C107.08833984 262.70031673 111.37833984 264.02031673 115.79833984 265.38031673 C125.21434181 270.22283203 131.42992007 277.2910215 134.79833984 287.38031673 C135.45833984 290.02031673 136.11833984 292.66031673 136.79833984 295.38031673 C164.84833984 295.38031673 192.89833984 295.38031673 221.79833984 295.38031673 C222.45833984 292.08031673 223.11833984 288.78031673 223.79833984 285.38031673 C227.98902213 274.8452269 234.16857411 269.42026618 244.07568359 264.45844173 C247.53306251 263.08937921 251.19079205 262.28220368 254.79833984 261.38031673 C254.79833984 190.76031673 254.79833984 120.14031673 254.79833984 47.38031673 C204.63833984 47.38031673 154.47833984 47.38031673 102.79833984 47.38031673 Z M73.79833984 47.38031673 C73.70713685 82.09079516 73.63632567 116.80124287 73.59407853 151.51181521 C73.58907555 155.60746826 73.58389828 159.70312107 73.57861328 163.79877377 C73.57756404 164.61416236 73.5765148 165.42955095 73.57543376 166.26964828 C73.55801707 179.48132973 73.52647245 192.69294172 73.48972866 205.90458193 C73.45235436 219.45570562 73.43011144 233.00679288 73.42198586 246.55796599 C73.41649078 254.9232983 73.39912021 263.28843432 73.36667398 271.65370622 C73.34556938 277.38604748 73.33913056 283.11828692 73.34433433 288.85066423 C73.34690251 292.16059925 73.34072983 295.47011707 73.32151794 298.78000736 C73.30172133 302.36533687 73.30636368 305.94981519 73.31732178 309.53516293 C73.30567041 310.58574044 73.29401905 311.63631796 73.28201461 312.71873116 C73.30765406 318.12102205 73.30765406 318.12102205 75.31793499 323.02681351 C78.83121967 324.94393689 82.06449236 324.92980114 85.96583557 324.88152218 C86.7960977 324.88705658 87.62635983 324.89259097 88.48178142 324.89829308 C91.26802393 324.91192274 94.05337426 324.89691807 96.83959961 324.88202572 C98.83530051 324.88580803 100.83099879 324.89130734 102.82669067 324.8983984 C108.25014725 324.91238085 113.67328758 324.90116398 119.09672666 324.88468719 C124.76614217 324.8708576 130.43553893 324.8772943 136.10496521 324.88082027 C145.62544871 324.88352383 155.14580624 324.87003349 164.66625977 324.84686947 C175.68286075 324.82025124 186.69925117 324.81851454 197.7158733 324.83025783 C208.30278129 324.84102557 218.8896129 324.83485693 229.47651482 324.82070255 C233.98724097 324.8149348 238.49791138 324.81503161 243.00863838 324.81976795 C248.31674987 324.82452965 253.62462987 324.81446959 258.9326973 324.7928133 C260.88423952 324.78723451 262.83580394 324.78679009 264.78734779 324.79176617 C267.44443394 324.79769311 270.10080609 324.78526414 272.75782776 324.76799679 C273.53622326 324.77400683 274.31461876 324.78001688 275.116602 324.78620905 C279.16737179 324.75860375 279.16737179 324.75860375 282.73837185 323.04358673 C284.69776023 319.96897323 284.9230231 317.31956101 284.92138767 313.77886581 C284.92437425 312.35390579 284.92437425 312.35390579 284.92742115 310.9001587 C284.92305189 309.33159601 284.92305189 309.33159601 284.91859436 307.73134518 C284.91944879 306.62213921 284.92030321 305.51293325 284.92118353 304.37011498 C284.92283736 300.63432297 284.91731849 296.89857535 284.91186523 293.16278744 C284.91158332 290.49242711 284.9116971 287.82206955 284.91230774 285.15170956 C284.91283257 279.39281214 284.90969001 273.63392604 284.9040699 267.87503147 C284.8959494 259.54859546 284.89333911 251.22216493 284.89208191 242.89572539 C284.88989226 229.38724948 284.88323452 215.8787796 284.8737793 202.37030697 C284.86460294 189.24660936 284.8575232 176.12291339 284.85327148 162.99921322 C284.85300876 162.19052559 284.85274604 161.38183796 284.85247535 160.54864464 C284.85117033 156.49177324 284.84990662 152.43490184 284.84866345 148.37803042 C284.83829354 114.71212144 284.82060334 81.04621993 284.79833984 47.38031673 C279.84833984 47.38031673 274.89833984 47.38031673 269.79833984 47.38031673 C269.79475731 49.11555332 269.79475731 49.11555332 269.79110241 50.88584518 C269.73377576 78.32999698 269.66106894 105.77407214 269.56935356 133.21813156 C269.55808504 136.59405164 269.54694664 139.96997213 269.53588867 143.34589291 C269.53368499 144.0179943 269.5314813 144.69009569 269.52921084 145.38256379 C269.49381258 156.27338885 269.46896275 167.16421384 269.44799282 178.05507515 C269.42625088 189.22530491 269.39299219 200.39546738 269.34963828 211.56563634 C269.32564625 217.84178492 269.30695673 224.11785048 269.30072594 230.39404392 C269.29470208 236.2963493 269.2748005 242.19844206 269.24406433 248.10066891 C269.23524064 250.27150849 269.23157041 252.44237581 269.23333168 254.61323261 C269.23497281 257.56829842 269.21838483 260.52270704 269.19706726 263.47768307 C269.20433862 264.77777033 269.20433862 264.77777033 269.21175689 266.10412198 C269.14199857 271.92979723 269.14199857 271.92979723 267.49377471 274.09053677 C264.72859384 276.19411205 261.4653143 275.9670164 258.11083984 276.19281673 C251.24289498 276.86664125 246.54470748 278.03314307 241.79833984 283.38031673 C241.29947266 283.92301205 240.80060547 284.46570736 240.28662109 285.02484798 C236.17940122 290.42660707 235.89164255 296.53857527 235.35302734 303.08734798 C234.76499471 306.57827413 234.51466745 307.31990588 231.79833984 309.38031673 C229.78213501 309.76063347 229.78213501 309.76063347 227.43359375 309.76799679 C226.09606049 309.78285374 226.09606049 309.78285374 224.73150635 309.79801083 C223.75582703 309.79350918 222.78014771 309.78900753 221.77490234 309.78436947 C220.74540466 309.79123272 219.71590698 309.79809597 218.6552124 309.8051672 C215.24444884 309.82350293 211.83414222 309.81958828 208.42333984 309.81391048 C206.05826669 309.81846873 203.69319488 309.82377322 201.328125 309.82979488 C196.36827213 309.8387391 191.40858016 309.83628753 186.44873047 309.82636166 C180.08272763 309.81486517 173.71727889 309.8350878 167.35134888 309.86427879 C162.46667942 309.88259541 157.58214389 309.88235747 152.69744873 309.87664127 C150.34982526 309.87648753 148.002193 309.88257528 145.65460205 309.89493275 C142.37663659 309.90975651 139.09970957 309.89922888 135.82177734 309.88202572 C134.84609802 309.89169369 133.8704187 309.90136166 132.86517334 309.91132259 C131.9734845 309.90148846 131.08179565 309.89165432 130.16308594 309.88152218 C129.38806732 309.88131289 128.61304871 309.88110361 127.81454468 309.88088799 C125.79833984 309.38031673 125.79833984 309.38031673 124.04653931 307.5154953 C122.45870438 304.79933398 122.4646554 302.88703577 122.42333984 299.75531673 C122.00666054 293.42796438 120.6603807 288.48437542 116.79833984 283.38031673 C110.06721588 277.58210293 104.41532706 276.26742036 95.70849609 275.95453548 C91.99620604 275.22204335 91.03422341 274.43189444 88.79833984 271.38031673 C88.1989874 268.38905399 88.25190146 265.43780336 88.27935791 262.39539242 C88.27185666 261.47725899 88.26435541 260.55912556 88.25662684 259.61316991 C88.23629093 256.52979033 88.24446402 253.44714196 88.25244141 250.36371517 C88.24370962 248.15624925 88.23322523 245.94878966 88.22111511 243.74133968 C88.19318634 237.7417178 88.18985195 231.74230174 88.190835 225.74262428 C88.18771182 219.47518108 88.16210602 213.20783139 88.13885498 206.94043636 C88.10286268 196.41877418 88.08078162 185.89714773 88.06933594 175.37543392 C88.05750893 164.53815858 88.03731511 153.70095209 88.00585938 142.86371517 C88.00392327 142.19567906 88.00198717 141.52764294 87.9999924 140.83936331 C87.99022787 137.48801347 87.98029876 134.13666415 87.9702878 130.78531504 C87.88782162 102.9836804 87.83377148 75.18204828 87.79833984 47.38031673 C83.17833984 47.38031673 78.55833984 47.38031673 73.79833984 47.38031673 Z M299.79833984 47.38031673 C299.79833984 67.84031673 299.79833984 88.30031673 299.79833984 109.38031673 C307.38833984 109.38031673 314.97833984 109.38031673 322.79833984 109.38031673 C322.79833984 88.92031673 322.79833984 68.46031673 322.79833984 47.38031673 C315.20833984 47.38031673 307.61833984 47.38031673 299.79833984 47.38031673 Z " fill="#35160C" transform="translate(75.20166015625,8.619683265686035)"/>
<path d="M0 0 C0.71417084 -0.00335861 1.42834167 -0.00671722 2.16415405 -0.01017761 C4.52628313 -0.01968036 6.88834127 -0.02163043 9.25048828 -0.02270508 C10.89332102 -0.02591829 12.53615346 -0.02928242 14.1789856 -0.03279114 C17.62388777 -0.03878083 21.06876486 -0.04063122 24.51367188 -0.04003906 C28.92430592 -0.03993749 33.33477881 -0.05358567 37.74537468 -0.07081127 C41.13917782 -0.08193949 44.53294211 -0.08395801 47.92676163 -0.08342934 C49.5526294 -0.08460837 51.1784982 -0.08902584 52.80434799 -0.0967617 C55.08061701 -0.10657755 57.35653768 -0.1036773 59.6328125 -0.09765625 C61.57448807 -0.09979378 61.57448807 -0.09979378 63.5553894 -0.10197449 C66.87708484 0.14025272 69.05945581 0.50125498 71.94580078 2.14526367 C74.21647765 5.24019043 74.18948185 8.07334228 74.17285156 11.83178711 C74.1727005 12.97266785 74.17254944 14.11354858 74.1723938 15.28900146 C74.16207123 16.51516174 74.15174866 17.74132202 74.14111328 19.00463867 C74.13828339 20.26415344 74.13545349 21.52366821 74.13253784 22.8213501 C74.123242 26.16200269 74.10528661 29.50238036 74.08312988 32.84295654 C74.06263286 36.25489939 74.0535279 39.66687069 74.04345703 43.07885742 C74.02139985 49.76773535 73.98792445 56.45648364 73.94580078 63.14526367 C74.65712158 63.12431641 75.36844238 63.10336914 76.10131836 63.08178711 C79.32016906 62.99870642 82.53879445 62.94662902 85.75830078 62.89526367 C86.87785156 62.86174805 87.99740234 62.82823242 89.15087891 62.79370117 C90.22402344 62.78081055 91.29716797 62.76791992 92.40283203 62.75463867 C93.39259033 62.73369141 94.38234863 62.71274414 95.40209961 62.69116211 C97.94580078 63.14526367 97.94580078 63.14526367 99.76489258 64.98608398 C101.39213785 67.96134905 101.42406605 69.79740681 100.94580078 73.14526367 C98.11844498 77.25471399 94.63781703 80.16655545 90.69580078 83.14526367 C89.43958625 84.11270855 88.18441907 85.08151455 86.93017578 86.05151367 C86.27726562 86.55553711 85.62435547 87.05956055 84.95166016 87.57885742 C81.57447087 90.21615616 78.26220289 92.93220943 74.94580078 95.64526367 C69.45762845 100.12638366 63.92090398 104.53494377 58.33154297 108.88891602 C52.6155855 113.36277079 47.02905856 117.99164141 41.45385742 122.63916016 C40.76541748 123.21093994 40.07697754 123.78271973 39.36767578 124.37182617 C38.44873535 125.13873779 38.44873535 125.13873779 37.51123047 125.92114258 C34.54546547 128.2402857 31.9237713 128.62637685 28.16162109 128.56958008 C23.84254966 127.7425036 20.9952074 124.71049678 17.82080078 121.83276367 C16.31943622 120.53315316 14.81681565 119.23499234 13.31298828 117.93823242 C12.5740332 117.29160645 11.83507812 116.64498047 11.07373047 115.97875977 C8.11163795 113.4265208 5.04298648 111.03010567 1.94580078 108.64526367 C-4.03561763 103.99544967 -9.8826558 99.19352561 -15.71142578 94.35424805 C-19.12744507 91.52601482 -22.55909966 88.73041826 -26.06982422 86.02026367 C-26.70082031 85.53299805 -27.33181641 85.04573242 -27.98193359 84.54370117 C-29.15044608 83.6469649 -30.32327417 82.75580813 -31.50146484 81.87182617 C-35.30578369 78.95471721 -38.23950432 75.99722576 -41.05419922 72.14526367 C-41.05419922 68.9103583 -40.75554526 67.10118382 -38.83813477 64.48779297 C-36.34154871 62.60894711 -34.61067669 62.80309736 -31.51123047 62.85229492 C-29.90151367 62.86679687 -29.90151367 62.86679687 -28.25927734 62.8815918 C-27.13972656 62.90672852 -26.02017578 62.93186523 -24.86669922 62.95776367 C-23.73554688 62.97129883 -22.60439453 62.98483398 -21.43896484 62.9987793 C-18.64356605 63.03416409 -15.84912029 63.08353419 -13.05419922 63.14526367 C-13.06086105 62.4275177 -13.06752289 61.70977173 -13.0743866 60.97027588 C-13.13452826 54.20214662 -13.18018915 47.43405737 -13.20963573 40.66572952 C-13.22528362 37.18613525 -13.24650529 33.706762 -13.28051758 30.22729492 C-13.31938576 26.2259714 -13.3339156 22.22487962 -13.34716797 18.22338867 C-13.36265182 16.97535461 -13.37813568 15.72732056 -13.39408875 14.44146729 C-13.39431534 13.2805658 -13.39454193 12.11966431 -13.39477539 10.92358398 C-13.40143723 9.90210266 -13.40809906 8.88062134 -13.41496277 7.82818604 C-12.99648296 4.71604003 -12.23717442 3.37427853 -10.05419922 1.14526367 C-6.52569487 -0.03090444 -3.72500653 0.01098261 0 0 Z M1.94580078 15.14526367 C1.90841797 19.29733398 1.87103516 23.4494043 1.83251953 27.72729492 C1.79441625 31.03690572 1.75334347 34.34644999 1.71025848 37.65599823 C1.66558557 41.15020061 1.62615313 44.64428272 1.59936523 48.13867188 C1.56839227 52.14768154 1.51360262 56.15605735 1.45751953 60.16479492 C1.45112961 61.41799026 1.44473969 62.67118561 1.43815613 63.96235657 C1.41836197 65.12333359 1.39856781 66.28431061 1.37817383 67.48046875 C1.36151924 69.01602165 1.36151924 69.01602165 1.3445282 70.58259583 C0.94580078 73.14526367 0.94580078 73.14526367 -0.42619324 74.96733093 C-2.67566818 76.59492334 -4.49326034 76.65429361 -7.24169922 76.83276367 C-8.14275391 76.89850586 -9.04380859 76.96424805 -9.97216797 77.03198242 C-11.00277344 77.08805664 -11.00277344 77.08805664 -12.05419922 77.14526367 C-8.51561117 80.82171879 -4.79257094 84.03874563 -0.74169922 87.14526367 C4.70666514 91.37391068 10.0971474 95.66611483 15.44580078 100.02026367 C16.43253784 100.82270508 16.43253784 100.82270508 17.43920898 101.64135742 C21.29619186 104.78404774 25.12953341 107.95326226 28.94580078 111.14526367 C33.62479625 109.67273065 36.79947011 106.92371099 40.38330078 103.70776367 C45.21938014 99.46301778 50.11708058 95.34708822 55.19580078 91.39526367 C55.77273682 90.94562256 56.34967285 90.49598145 56.9440918 90.03271484 C58.07010659 89.15646185 59.19663817 88.28087246 60.32373047 87.40600586 C62.83239079 85.45616813 65.32951431 83.49223972 67.82080078 81.52026367 C68.62259766 80.88862305 69.42439453 80.25698242 70.25048828 79.60620117 C70.80994141 79.1240918 71.36939453 78.64198242 71.94580078 78.14526367 C71.94580078 77.81526367 71.94580078 77.48526367 71.94580078 77.14526367 C71.24712891 77.0962793 70.54845703 77.04729492 69.82861328 76.99682617 C68.91853516 76.92206055 68.00845703 76.84729492 67.07080078 76.77026367 C66.16587891 76.7006543 65.26095703 76.63104492 64.32861328 76.55932617 C61.94580078 76.14526367 61.94580078 76.14526367 59.94580078 74.14526367 C59.66732788 71.66488647 59.66732788 71.66488647 59.62695312 68.50219727 C59.60708344 67.32112396 59.58721375 66.14005066 59.56674194 64.92318726 C59.55519073 63.64295685 59.54363953 62.36272644 59.53173828 61.04370117 C59.51237213 59.73696442 59.49300598 58.43022766 59.47305298 57.08389282 C59.42165908 53.60859259 59.38207256 50.13325355 59.34490967 46.65777588 C59.30491525 43.11184067 59.25390982 39.56606526 59.20361328 36.02026367 C59.10572433 29.06199039 59.02627132 22.10384773 58.94580078 15.14526367 C40.13580078 15.14526367 21.32580078 15.14526367 1.94580078 15.14526367 Z " fill="#34160C" transform="translate(224.05419921875,374.854736328125)"/>
<path d="M0 0 C13.10442761 11.20695393 21.89199683 26.99714075 23.57177734 44.29003906 C24.77305959 63.65455723 20.25819745 81.45413205 7.53515625 96.5234375 C-5.07935685 110.19290098 -20.74538986 119.23430419 -39.65625 120.140625 C-59.01782453 120.6266258 -76.3564387 115.19711388 -91.19921875 102.26953125 C-105.06636329 88.93065888 -112.17932297 71.49933517 -112.91015625 52.40234375 C-112.60341289 35.68483068 -106.92294007 19.45622718 -95.66015625 6.90234375 C-95.02851563 6.17917969 -94.396875 5.45601562 -93.74609375 4.7109375 C-68.62443545 -22.28342624 -28.01088237 -22.08787641 0 0 Z M-83.66015625 15.90234375 C-93.18404995 27.36296217 -98.14558602 40.82111634 -97.59765625 55.71484375 C-96.11170593 71.14846408 -89.12673477 84.08745247 -77.27734375 94.05078125 C-64.15018277 103.33775782 -50.54645203 106.68311327 -34.55078125 104.47265625 C-19.20498367 101.18427105 -6.81925382 92.15667206 1.77734375 79.08984375 C8.87270698 66.03026216 10.72995312 51.24479819 6.65234375 36.96484375 C1.45553586 22.31273262 -8.06983296 10.5905178 -22.19921875 3.65625 C-43.33352126 -5.27511933 -67.72487823 -1.47520005 -83.66015625 15.90234375 Z " fill="#34160C" transform="translate(298.66015625,100.09765625)"/>
<path d="M0 0 C2.36203426 2.23081013 3.82941305 4.20905837 5.25 7.125 C5.25 8.115 5.25 9.105 5.25 10.125 C6.178125 10.063125 7.10625 10.00125 8.0625 9.9375 C11.25 10.125 11.25 10.125 13.0625 11.25 C14.78112958 13.96362565 15.18572343 15.91117168 15.25 19.125 C13.6875 22 13.6875 22 11.25 24.125 C8 24.4375 8 24.4375 5.25 24.125 C5.1675 24.846875 5.085 25.56875 5 26.3125 C4.09343384 29.71212309 2.61105545 31.54930315 0.25 34.125 C-2.59083641 35.54541821 -4.60477278 35.43952272 -7.75 35.125 C-10.125 33.5625 -10.125 33.5625 -11.75 31.125 C-12.28663416 26.98525073 -12.09058499 24.76687172 -10.125 21.0625 C-8.3781997 18.12654316 -8.3781997 18.12654316 -9.5625 14.75 C-10.1503125 13.450625 -10.1503125 13.450625 -10.75 12.125 C-13.14719432 11.44541397 -13.14719432 11.44541397 -15.75 11.125 C-18.45891422 13.83391422 -18.37249183 15.99299598 -19 19.75 C-20.50524777 27.05906379 -22.54110601 31.95701528 -28.56640625 36.4921875 C-33.72085275 39.51196424 -38.89394894 40.03738951 -44.75 39.125 C-50.66279053 37.2882169 -54.27904777 34.17365779 -57.75 29.125 C-58.5625 26.75 -58.5625 26.75 -58.75 25.125 C-59.678125 25.021875 -60.60625 24.91875 -61.5625 24.8125 C-64.75 24.125 -64.75 24.125 -66.625 23 C-68.45099685 19.95667192 -68.17460581 17.58250445 -67.75 14.125 C-66.0625 11.6875 -66.0625 11.6875 -63.75 10.125 C-61 9.875 -61 9.875 -58.75 10.125 C-58.688125 9.42375 -58.62625 8.7225 -58.5625 8 C-57.44528762 4.04678696 -55.54812617 2.12786711 -52.75 -0.875 C-49.65826248 -2.42086876 -47.15570448 -2.16859521 -43.75 -1.875 C-41.3125 -0.25 -41.3125 -0.25 -39.75 2.125 C-39.25 5.0625 -39.25 5.0625 -39.75 8.125 C-40.41 8.90875 -41.07 9.6925 -41.75 10.5 C-44.61391466 14.25888799 -44.20732203 16.4755594 -43.75 21.125 C-43.09 21.785 -42.43 22.445 -41.75 23.125 C-39.19539786 23.19772562 -39.19539786 23.19772562 -36.75 22.125 C-35.30500258 19.76737263 -34.81783803 17.56861499 -34.40234375 14.8515625 C-33.18275673 7.15513955 -30.48122822 1.87900178 -24.125 -2.8125 C-15.43489071 -6.70018047 -7.76866265 -5.29681544 0 0 Z " fill="#34160C" transform="translate(280.75,134.875)"/>
</svg>
